<?xml version="1.0" encoding="utf-8"?>
<!-- Generator: Adobe Illustrator 16.0.0, SVG Export Plug-In . SVG Version: 6.00 Build 0)  -->
<!DOCTYPE svg PUBLIC "-//W3C//DTD SVG 1.1//EN" "http://www.w3.org/Graphics/SVG/1.1/DTD/svg11.dtd">
<svg version="1.1" id="Layer_1" xmlns="http://www.w3.org/2000/svg" xmlns:xlink="http://www.w3.org/1999/xlink" x="0px" y="0px"
	 width="32px" height="32px" viewBox="0 0 32 32" enable-background="new 0 0 32 32" xml:space="preserve">
<g id="secure_x2C__web_security_x2C__network_x2C__shield">
	<g id="international_finance_x2C__globe_x2C__money_flow_x2C__money_turnover_2_">
		<g id="global_3_">
			<g>
				<path fill="#455A64" d="M14.5,28.5c-4.914,0-9.523-2.413-12.331-6.454c-0.157-0.227-0.101-0.538,0.126-0.696
					c0.227-0.157,0.537-0.103,0.696,0.125C5.61,25.248,9.913,27.5,14.5,27.5c0.339,0,0.674-0.012,1.007-0.036
					c0.253-0.018,0.515,0.187,0.534,0.463c0.02,0.275-0.188,0.514-0.464,0.534C15.221,28.487,14.862,28.5,14.5,28.5z"/>
				<path fill="#455A64" d="M29,14c-0.276,0-0.5-0.224-0.5-0.5c0-3.859-1.536-7.453-4.325-10.12
					c-0.199-0.191-0.206-0.507-0.016-0.707c0.191-0.199,0.508-0.207,0.707-0.016C27.854,5.514,29.5,9.365,29.5,13.5
					C29.5,13.776,29.276,14,29,14z"/>
				<circle fill="#80D8FF" cx="14.5" cy="13.5" r="12"/>
				<path fill="#73C2E6" d="M22.77,4.818c0.555,1.456,0.873,3.031,0.873,4.683c0,7.257-5.885,13.142-13.143,13.142
					c-1.651,0-3.227-0.318-4.682-0.873c2.186,2.292,5.263,3.73,8.682,3.73c6.628,0,12-5.372,12-12
					C26.5,10.081,25.063,7.004,22.77,4.818z"/>
				<path fill="#FFFFFF" d="M4.153,14.179c0-6.394,5.183-11.576,11.575-11.576c1.998,0,3.877,0.505,5.517,1.396
					C19.273,2.438,16.787,1.5,14.076,1.5C7.682,1.5,2.5,6.682,2.5,13.076c0,4.396,2.451,8.218,6.059,10.178
					C5.879,21.134,4.153,17.859,4.153,14.179z"/>
				<path fill="#455A64" d="M5.761,22.205c-0.217,0-0.416-0.141-0.479-0.359c-0.078-0.265,0.073-0.542,0.339-0.621
					c3.218-0.944,6.6-1.357,9.895-1.262c0.276,0.008,0.493,0.239,0.485,0.515s-0.245,0.496-0.515,0.485
					c-3.199-0.098-6.467,0.307-9.584,1.222C5.854,22.199,5.808,22.205,5.761,22.205z"/>
				<path fill="#455A64" d="M14.5,7.053c-2.075,0-4.159-0.207-6.194-0.615C8.035,6.384,7.859,6.121,7.914,5.85
					c0.055-0.271,0.324-0.447,0.589-0.392c4.82,0.966,9.862,0.747,14.596-0.643c0.262-0.079,0.542,0.074,0.62,0.339
					c0.078,0.265-0.073,0.542-0.339,0.621C20.49,6.623,17.503,7.053,14.5,7.053z"/>
				<path fill="#455A64" d="M21.447,14c-0.276,0-0.5-0.224-0.5-0.5c0-4.606-2.3-8.928-6.153-11.559
					c-0.228-0.156-0.286-0.467-0.131-0.695c0.156-0.229,0.468-0.284,0.695-0.131c4.126,2.818,6.589,7.447,6.589,12.385
					C21.947,13.776,21.724,14,21.447,14z"/>
				<path fill="#455A64" d="M13.924,25.972c-0.098,0-0.195-0.028-0.282-0.087C9.516,23.067,7.053,18.438,7.053,13.5
					c0-3.562,1.284-7.015,3.615-9.725c0.18-0.208,0.496-0.233,0.705-0.053c0.209,0.18,0.233,0.496,0.053,0.705
					c-2.175,2.528-3.373,5.75-3.373,9.072c0,4.606,2.3,8.928,6.153,11.559c0.228,0.156,0.286,0.467,0.131,0.695
					C14.24,25.896,14.083,25.972,13.924,25.972z"/>
				<g>
					<path fill="#455A64" d="M14.5,25.368c-0.276,0-0.5-0.224-0.5-0.5V2.132c0-0.276,0.224-0.5,0.5-0.5s0.5,0.224,0.5,0.5v22.736
						C15,25.145,14.776,25.368,14.5,25.368z"/>
				</g>
				<g>
					<path fill="#455A64" d="M19.368,14H4.346c-0.276,0-0.5-0.224-0.5-0.5s0.224-0.5,0.5-0.5h15.022c0.276,0,0.5,0.224,0.5,0.5
						S19.645,14,19.368,14z"/>
				</g>
				<path fill="#455A64" d="M14.5,26C7.607,26,2,20.393,2,13.5c0-3.514,1.491-6.885,4.091-9.25c0.207-0.185,0.521-0.17,0.707,0.034
					C6.983,4.488,6.969,4.804,6.765,4.99C4.372,7.166,3,10.268,3,13.5C3,19.841,8.159,25,14.5,25c0.322,0,0.641-0.013,0.957-0.039
					c0.298-0.012,0.518,0.183,0.539,0.458c0.022,0.275-0.183,0.517-0.457,0.539C15.195,25.986,14.85,26,14.5,26z"/>
				<path fill="#455A64" d="M26.5,14c-0.276,0-0.5-0.224-0.5-0.5C26,7.159,20.841,2,14.5,2c-2.015,0-3.996,0.528-5.731,1.528
					C8.527,3.665,8.223,3.584,8.085,3.344C7.947,3.105,8.029,2.799,8.269,2.662C10.156,1.575,12.311,1,14.5,1
					C21.393,1,27,6.607,27,13.5C27,13.776,26.776,14,26.5,14z"/>
			</g>
		</g>
	</g>
	<g>
		<path fill="#FFFFFF" d="M27.004,28.164L23.501,30.5l-3.505-2.336C18.617,27.245,17.5,25.157,17.5,23.5V17l6-2l6,2v6.5
			C29.5,25.157,28.383,27.245,27.004,28.164z"/>
		<path fill="#FFF176" d="M29.5,17.212l-6.083-1.17l-2.518,0.831C19.85,17.22,19,18.396,19,19.5V24c0,1.657,1.117,3.745,2.496,4.664
			l2.38,1.586l3.128-2.086c1.379-0.919,2.496-3.007,2.496-4.664V17.212z"/>
		<path fill="#455A64" d="M23.501,31c-0.097,0-0.193-0.028-0.277-0.084l-3.505-2.336C18.194,27.564,17,25.333,17,23.5V17
			c0-0.215,0.138-0.406,0.342-0.474l6-2c0.104-0.034,0.213-0.034,0.316,0l4.492,1.498c0.262,0.087,0.403,0.37,0.316,0.632
			c-0.087,0.263-0.37,0.405-0.633,0.316L23.5,15.527L18,17.36v6.14c0,1.481,1.041,3.427,2.273,4.248l3.228,2.151l3.226-2.151
			C27.959,26.927,29,24.981,29,23.5v-2c0-0.276,0.224-0.5,0.5-0.5s0.5,0.224,0.5,0.5v2c0,1.833-1.194,4.064-2.719,5.08l-3.503,2.336
			C23.694,30.972,23.598,31,23.501,31z"/>
	</g>
	<g>
		<g>
			<g>
				<path fill="#455A64" d="M23.5,25.199c-0.004,0-0.008,0-0.012,0c-0.145-0.004-0.28-0.069-0.373-0.18l-2.5-3
					c-0.176-0.213-0.147-0.528,0.064-0.705c0.213-0.176,0.527-0.147,0.705,0.064l2.133,2.561l6.215-6.865
					c0.188-0.204,0.504-0.216,0.706-0.031c0.203,0.187,0.217,0.503,0.03,0.707l-6.6,7.287C23.773,25.141,23.641,25.199,23.5,25.199z
					"/>
			</g>
		</g>
	</g>
	<circle fill="#455A64" cx="1.5" cy="20" r="0.5"/>
	<circle fill="#455A64" cx="22.5" cy="1.5" r="0.5"/>
</g>
</svg>
