<?xml version="1.0" encoding="utf-8"?>
<!-- Generator: Adobe Illustrator 16.0.0, SVG Export Plug-In . SVG Version: 6.00 Build 0)  -->
<!DOCTYPE svg PUBLIC "-//W3C//DTD SVG 1.1//EN" "http://www.w3.org/Graphics/SVG/1.1/DTD/svg11.dtd">
<svg version="1.1" id="Layer_1" xmlns="http://www.w3.org/2000/svg" xmlns:xlink="http://www.w3.org/1999/xlink" x="0px" y="0px"
	 width="32px" height="32px" viewBox="0 0 32 32" enable-background="new 0 0 32 32" xml:space="preserve">
<g id="throughput_funnel">
	<path fill="#FFFFFF" d="M30.5,2.5c0,0.55-0.45,1-1,1h-26c-0.55,0-1-0.45-1-1l0,0c0-0.55,0.45-1,1-1h26
		C30.05,1.5,30.5,1.95,30.5,2.5L30.5,2.5z"/>
	<path fill="#65F0CD" d="M5,3c0,0.186,0.065,0.351,0.154,0.5H29.5c0.55,0,1-0.45,1-1c0-0.186-0.065-0.351-0.154-0.5H6
		C5.45,2,5,2.45,5,3z"/>
	<path fill="#455A64" d="M29.5,4h-26C2.673,4,2,3.327,2,2.5S2.673,1,3.5,1h0.906c0.276,0,0.5,0.224,0.5,0.5S4.683,2,4.406,2H3.5
		C3.224,2,3,2.224,3,2.5S3.224,3,3.5,3h26C29.776,3,30,2.776,30,2.5S29.776,2,29.5,2H6.968c-0.276,0-0.5-0.224-0.5-0.5
		S6.692,1,6.968,1H29.5C30.327,1,31,1.673,31,2.5S30.327,4,29.5,4z"/>
	<polygon fill="#1AD2A4" points="5,3.5 14,16.5 15,30.5 18.159,27.96 19,16.5 28,3.5 	"/>
	<path fill="#1DE9B6" d="M14,16.5l0.097,1.36l7.195-10.393C22.235,6.104,21.657,5,20,5H6.039L14,16.5z"/>
	<path fill="#455A64" d="M8.488,9.037c-0.159,0-0.314-0.075-0.412-0.215L4.589,3.785C4.483,3.632,4.471,3.433,4.557,3.268
		C4.644,3.103,4.814,3,5,3h23c0.186,0,0.356,0.103,0.443,0.268c0.086,0.165,0.074,0.364-0.032,0.517l-3.459,4.997
		c-0.158,0.227-0.469,0.284-0.696,0.126s-0.284-0.469-0.126-0.696L27.046,4H5.954l2.944,4.252c0.157,0.227,0.101,0.539-0.126,0.696
		C8.685,9.008,8.586,9.037,8.488,9.037z"/>
	<path fill="#455A64" d="M15,31c-0.068,0-0.136-0.014-0.2-0.042c-0.17-0.075-0.286-0.237-0.299-0.423l-0.359-5.026
		c-0.02-0.275,0.188-0.515,0.463-0.534c0.28-0.031,0.515,0.188,0.534,0.463l0.292,4.074l2.245-1.806l0.166-2.247
		c0.02-0.275,0.266-0.482,0.535-0.462c0.275,0.02,0.482,0.26,0.462,0.535l-0.181,2.463c-0.01,0.138-0.077,0.266-0.185,0.353
		l-3.159,2.54C15.223,30.962,15.112,31,15,31z"/>
	<g>
		<g>
			<g>
				<path fill="#FFFFFF" d="M22.157,21.156c-3.126,3.126-8.188,3.126-11.313,0c-3.125-3.125-3.125-8.187,0-11.312
					c3.118-3.126,8.188-3.126,11.313,0C25.281,12.969,25.281,18.039,22.157,21.156z"/>
				<path fill="#455A64" d="M16.5,24c-2.27,0-4.404-0.885-6.01-2.491c-3.313-3.313-3.313-8.705,0-12.019
					C12.092,7.885,14.226,7,16.497,7s4.407,0.884,6.013,2.491c1.607,1.607,2.491,3.744,2.49,6.018
					c-0.001,2.27-0.886,4.401-2.49,6.001C20.904,23.116,18.77,24,16.5,24z M16.497,8c-2.004,0-3.886,0.78-5.3,2.197
					c-2.924,2.924-2.924,7.681,0,10.605C12.614,22.22,14.498,23,16.5,23s3.886-0.781,5.303-2.198
					c1.416-1.412,2.196-3.292,2.197-5.294c0.001-2.006-0.779-3.892-2.197-5.31C20.386,8.78,18.501,8,16.497,8z"/>
				<g>
					<g>
						<g>
							<path fill="#455A64" d="M19.75,9.871c0.239,0.138,0.321,0.444,0.183,0.683l-0.25,0.433c-0.138,0.239-0.444,0.321-0.683,0.183
								s-0.321-0.444-0.183-0.683l0.25-0.433C19.205,9.814,19.511,9.732,19.75,9.871z"/>
						</g>
						<g>
							<path fill="#455A64" d="M14,19.83c0.239,0.138,0.321,0.444,0.183,0.683l-0.25,0.433c-0.138,0.239-0.444,0.321-0.683,0.183
								s-0.321-0.444-0.183-0.683l0.25-0.433C13.455,19.774,13.761,19.692,14,19.83z"/>
						</g>
					</g>
					<g>
						<g>
							<path fill="#455A64" d="M22.129,12.25c0.138,0.239,0.056,0.545-0.183,0.683l-0.433,0.25
								c-0.239,0.138-0.545,0.056-0.683-0.183s-0.056-0.545,0.183-0.683l0.433-0.25C21.686,11.929,21.991,12.011,22.129,12.25z"/>
						</g>
						<g>
							<path fill="#455A64" d="M12.17,18c0.138,0.239,0.056,0.545-0.183,0.683l-0.433,0.25c-0.239,0.138-0.545,0.056-0.683-0.183
								s-0.056-0.545,0.183-0.683l0.433-0.25C11.726,17.679,12.032,17.761,12.17,18z"/>
						</g>
					</g>
					<g>
						<g>
							<path fill="#455A64" d="M23,15.5c0,0.276-0.224,0.5-0.5,0.5H22c-0.276,0-0.5-0.224-0.5-0.5S21.724,15,22,15h0.5
								C22.776,15,23,15.224,23,15.5z"/>
						</g>
						<g>
							<path fill="#455A64" d="M11.5,15.5c0,0.276-0.224,0.5-0.5,0.5h-0.5c-0.276,0-0.5-0.224-0.5-0.5s0.224-0.5,0.5-0.5H11
								C11.276,15,11.5,15.224,11.5,15.5z"/>
						</g>
					</g>
					<g>
						<g>
							<path fill="#455A64" d="M22.129,18.75c-0.138,0.239-0.444,0.321-0.683,0.183l-0.433-0.25
								c-0.239-0.138-0.321-0.444-0.183-0.683s0.444-0.321,0.683-0.183l0.433,0.25C22.186,18.205,22.268,18.511,22.129,18.75z"/>
						</g>
						<g>
							<path fill="#455A64" d="M12.17,13c-0.138,0.239-0.444,0.321-0.683,0.183l-0.433-0.25c-0.239-0.138-0.321-0.444-0.183-0.683
								s0.444-0.321,0.683-0.183l0.433,0.25C12.226,12.455,12.308,12.761,12.17,13z"/>
						</g>
					</g>
					<g>
						<g>
							<path fill="#455A64" d="M19.75,21.129c-0.239,0.138-0.545,0.056-0.683-0.183l-0.25-0.433
								c-0.138-0.239-0.056-0.545,0.183-0.683s0.545-0.056,0.683,0.183l0.25,0.433C20.071,20.686,19.989,20.991,19.75,21.129z"/>
						</g>
						<g>
							<path fill="#455A64" d="M14,11.17c-0.239,0.138-0.545,0.056-0.683-0.183l-0.25-0.433c-0.138-0.239-0.056-0.545,0.183-0.683
								s0.545-0.056,0.683,0.183l0.25,0.433C14.321,10.726,14.239,11.032,14,11.17z"/>
						</g>
					</g>
					<g>
						<g>
							<path fill="#455A64" d="M16.5,22c-0.276,0-0.5-0.224-0.5-0.5V21c0-0.276,0.224-0.5,0.5-0.5S17,20.724,17,21v0.5
								C17,21.776,16.776,22,16.5,22z"/>
						</g>
						<g>
							<path fill="#455A64" d="M16.5,10.5c-0.276,0-0.5-0.224-0.5-0.5V9.5C16,9.224,16.224,9,16.5,9S17,9.224,17,9.5V10
								C17,10.276,16.776,10.5,16.5,10.5z"/>
						</g>
					</g>
				</g>
				<path fill="#FF8A80" d="M10.49,18.99c-0.265,0.265-0.495,0.552-0.711,0.844c0.302,0.468,0.655,0.912,1.064,1.322
					c3.126,3.126,8.188,3.126,11.313,0c0.41-0.409,0.763-0.853,1.065-1.32c-0.217-0.292-0.446-0.579-0.712-0.845
					C19.189,15.67,13.802,15.67,10.49,18.99z"/>
				<path fill="#E67C73" d="M18.213,16.678c-1.465,0.309-2.86,1.028-3.995,2.166c-0.981,0.981-1.653,2.154-2.018,3.397
					c3.096,1.979,7.25,1.621,9.957-1.085c0.41-0.409,0.763-0.853,1.065-1.32c-0.217-0.292-0.446-0.579-0.712-0.845
					C21.289,17.769,19.788,17.001,18.213,16.678z"/>
				<path fill="#455A64" d="M16.5,24c-2.27,0-4.404-0.885-6.01-2.491c-0.419-0.419-0.8-0.892-1.131-1.404l-0.188-0.292l0.207-0.278
					c0.279-0.376,0.513-0.653,0.759-0.899c1.696-1.7,3.955-2.637,6.36-2.637c2.405,0,4.666,0.937,6.366,2.637
					c0.316,0.315,0.572,0.647,0.76,0.901l0.206,0.278l-0.188,0.291c-0.332,0.514-0.713,0.986-1.132,1.403
					C20.904,23.116,18.77,24,16.5,24z M10.395,19.852c0.244,0.342,0.512,0.661,0.802,0.95C12.614,22.22,14.498,23,16.5,23
					s3.886-0.781,5.303-2.198c0.29-0.289,0.558-0.606,0.802-0.949c-0.13-0.165-0.282-0.342-0.449-0.509
					C20.645,17.833,18.635,17,16.497,17c-2.138,0-4.146,0.832-5.653,2.343C10.697,19.49,10.553,19.653,10.395,19.852z"/>
			</g>
		</g>
		<g>
			<path fill="#455A64" d="M16.5,17c-0.105,0-0.212-0.033-0.303-0.102c-0.219-0.167-0.262-0.481-0.095-0.701l3.2-4.2
				c0.167-0.219,0.48-0.262,0.701-0.095c0.219,0.167,0.262,0.481,0.095,0.701l-3.2,4.2C16.799,16.932,16.65,17,16.5,17z"/>
		</g>
		<path fill="#455A64" d="M10.999,24.945c-0.089,0-0.18-0.024-0.262-0.074c-0.727-0.448-1.404-0.984-2.015-1.594
			c-2.579-2.58-3.71-6.26-3.027-9.846c0.052-0.271,0.313-0.45,0.585-0.397c0.271,0.052,0.449,0.313,0.397,0.585
			c-0.622,3.26,0.407,6.606,2.751,8.951c0.555,0.555,1.171,1.043,1.832,1.45c0.235,0.145,0.308,0.453,0.164,0.688
			C11.33,24.86,11.167,24.945,10.999,24.945z"/>
		<path fill="#455A64" d="M22.043,24.919c-0.167,0-0.33-0.083-0.425-0.235c-0.146-0.234-0.075-0.543,0.16-0.689
			c0.647-0.403,1.25-0.883,1.793-1.426c2.329-2.323,3.361-5.647,2.761-8.893c-0.05-0.271,0.129-0.532,0.401-0.583
			c0.27-0.052,0.532,0.129,0.583,0.401c0.66,3.569-0.476,7.227-3.038,9.782c-0.595,0.596-1.259,1.124-1.97,1.567
			C22.225,24.895,22.133,24.919,22.043,24.919z"/>
	</g>
	<circle fill="#455A64" cx="6.5" cy="11.5" r="0.5"/>
	<circle fill="#455A64" cx="26.5" cy="11.5" r="0.5"/>
</g>
</svg>
