<?xml version="1.0" encoding="utf-8"?>
<!-- Generator: Adobe Illustrator 16.0.0, SVG Export Plug-In . SVG Version: 6.00 Build 0)  -->
<!DOCTYPE svg PUBLIC "-//W3C//DTD SVG 1.1//EN" "http://www.w3.org/Graphics/SVG/1.1/DTD/svg11.dtd">
<svg version="1.1" id="Layer_1" xmlns="http://www.w3.org/2000/svg" xmlns:xlink="http://www.w3.org/1999/xlink" x="0px" y="0px"
	 width="32px" height="32px" viewBox="0 0 32 32" enable-background="new 0 0 32 32" xml:space="preserve">
<g id="big_data_analytics_cloud">
	<g>
		<path fill="#FFFFFF" d="M26.943,20.651c-0.676,0-1.334-0.193-1.906-0.559l-0.119-0.076l-0.13,0.053
			c-0.936,0.376-2.113,0.582-3.317,0.582c-1.309,0-2.566-0.241-3.541-0.681l-0.097-0.043l-0.102,0.033
			c-1.361,0.451-2.906,0.69-4.467,0.69c-1.567,0-3.118-0.241-4.487-0.697l-0.12-0.04L8.55,19.98
			c-0.729,0.438-1.559,0.671-2.398,0.671C3.586,20.651,1.5,18.564,1.5,16c0-2.379,1.781-4.365,4.145-4.622l0.364-0.04L5.866,11
			C5.51,10.156,5.33,9.262,5.33,8.34c0-3.771,3.068-6.84,6.84-6.84c2.811,0,5.303,1.689,6.348,4.303l0.111,0.277l0.265-0.135
			c0.813-0.408,1.68-0.615,2.577-0.615c3.169,0,5.746,2.577,5.746,5.746c0,0.713-0.135,1.418-0.399,2.094l-0.142,0.361l0.387,0.013
			c1.927,0.064,3.438,1.624,3.438,3.55C30.5,19.056,28.904,20.651,26.943,20.651z"/>
		<path fill="#ECEFF1" d="M27.054,13.817l-0.775-0.026l0.284-0.721c0.253-0.645,0.381-1.314,0.381-1.994
			c0-1.688-0.771-3.199-1.976-4.205c0.001,0.004,0.003,0.007,0.005,0.01c-0.186-0.154-0.382-0.297-0.586-0.428
			c-0.01-0.007-0.023-0.014-0.034-0.021c-0.192-0.121-0.396-0.229-0.604-0.325c-0.01-0.005-0.019-0.01-0.028-0.014
			c0.31,0.686,0.487,1.443,0.487,2.246c0,3.021-2.45,5.471-5.473,5.471c-0.778,0-1.515-0.169-2.187-0.461
			c-0.02-0.026-0.036-0.053-0.053-0.078c1.37-1.203,2.239-2.965,2.239-4.932c0-0.799-0.153-1.557-0.414-2.263
			c0.002-0.005,0.004-0.01,0.005-0.015l-0.063-0.158c-0.46-1.15-1.216-2.111-2.154-2.818c0.008,0.014,0.018,0.025,0.025,0.039
			c-0.178-0.137-0.359-0.27-0.551-0.387c0.606,0.996,0.963,2.16,0.963,3.413c0,3.626-2.938,6.565-6.566,6.565
			c-1.253,0-2.417-0.355-3.412-0.965c0.565,0.928,1.357,1.701,2.293,2.252c0.01,0.117,0.026,0.234,0.026,0.354
			c0,2.417-1.961,4.378-4.378,4.378c-0.787,0-1.522-0.211-2.16-0.574c0.003,0.006,0.008,0.011,0.01,0.016
			c0.225,0.389,0.51,1.008,0.838,1.311c-0.003-0.001-0.007-0.002-0.01-0.002c0.781,0.72,1.82,1.165,2.964,1.165
			c0.79,0,1.57-0.22,2.257-0.633l0.215-0.13l0.24,0.08c1.341,0.446,2.863,0.683,4.401,0.683c1.531,0,3.047-0.233,4.381-0.676
			l0.202-0.067l0.194,0.087c0.94,0.423,2.158,0.656,3.429,0.656c1.171,0,2.313-0.2,3.215-0.563l0.262-0.104l0.237,0.151
			c0.527,0.337,1.136,0.241,1.759,0.241c1.811,0,3.283-1.473,3.283-3.283C30.227,15.315,28.833,13.877,27.054,13.817z"/>
		<path fill="#455A64" d="M6.151,21.151C3.311,21.151,1,18.84,1,16c0-2.535,1.827-4.668,4.296-5.079
			C4.987,10.098,4.83,9.231,4.83,8.34c0-1.525,0.465-2.988,1.345-4.23c0.16-0.226,0.472-0.278,0.697-0.119
			c0.225,0.16,0.279,0.472,0.119,0.697C6.231,5.76,5.83,7.023,5.83,8.34c0,0.856,0.167,1.686,0.497,2.466l0.143,0.338
			c0.062,0.146,0.051,0.312-0.029,0.448c-0.08,0.136-0.22,0.227-0.376,0.244l-0.364,0.04C3.59,12.104,2,13.877,2,16
			c0,2.289,1.862,4.151,4.151,4.151c0.335,0,0.671-0.042,0.999-0.124c0.269-0.066,0.54,0.095,0.606,0.363
			c0.067,0.268-0.095,0.54-0.363,0.606C6.986,21.1,6.568,21.151,6.151,21.151z"/>
		<path fill="#455A64" d="M26.943,21.151c-0.77,0-1.522-0.22-2.175-0.637l-0.12-0.076c-0.232-0.149-0.3-0.458-0.152-0.691
			c0.149-0.232,0.458-0.301,0.691-0.152l0.119,0.076c0.492,0.314,1.058,0.48,1.637,0.48c1.686,0,3.057-1.372,3.057-3.058
			c0-1.655-1.298-2.995-2.954-3.05l-0.387-0.013c-0.162-0.005-0.312-0.089-0.401-0.225s-0.107-0.306-0.048-0.458l0.142-0.361
			c0.242-0.618,0.365-1.261,0.365-1.911c0-2.893-2.354-5.246-5.246-5.246c-0.818,0-1.609,0.189-2.353,0.562l-0.262,0.133
			c-0.126,0.064-0.272,0.071-0.403,0.023c-0.131-0.049-0.236-0.152-0.288-0.282l-0.111-0.277C17.084,3.565,14.775,2,12.17,2
			c-0.51,0-1.015,0.061-1.502,0.18c-0.126,0.03-0.25,0.065-0.372,0.103C10.03,2.364,9.752,2.215,9.671,1.952
			C9.59,1.688,9.739,1.408,10.002,1.327c0.142-0.043,0.284-0.083,0.428-0.118C10.994,1.07,11.58,1,12.17,1
			c2.936,0,5.547,1.716,6.718,4.394c0.821-0.375,1.688-0.563,2.583-0.563c3.444,0,6.246,2.802,6.246,6.246
			c0,0.675-0.111,1.343-0.33,1.99C29.437,13.287,31,15,31,17.094C31,19.331,29.18,21.151,26.943,21.151z"/>
		<circle fill="#455A64" cx="8.5" cy="2.5" r="0.5"/>
	</g>
	<g>
		<rect x="10" y="16" fill="#FF8A80" width="12" height="12"/>
		<g>
			<rect x="9.5" y="26.5" fill="#80D8FF" width="13" height="4"/>
			<rect x="9.5" y="26.5" fill="#FFFFFF" width="13" height="1.5"/>
			<path fill="#455A64" d="M22.5,31h-13C9.224,31,9,30.776,9,30.5v-4C9,26.224,9.224,26,9.5,26h13c0.276,0,0.5,0.224,0.5,0.5v4
				C23,30.776,22.776,31,22.5,31z M10,30h12v-3H10V30z"/>
			<circle fill="#455A64" cx="18.5" cy="28.5" r="0.5"/>
			<circle fill="#455A64" cx="20.5" cy="28.5" r="0.5"/>
			<g>
				<path fill="#455A64" d="M14.541,28.5h-3H14.541z"/>
				<path fill="#455A64" d="M14.541,29h-3c-0.276,0-0.5-0.224-0.5-0.5s0.224-0.5,0.5-0.5h3c0.276,0,0.5,0.224,0.5,0.5
					S14.817,29,14.541,29z"/>
			</g>
		</g>
		<g>
			<rect x="9.5" y="20.5" fill="#80D8FF" width="13" height="4"/>
			<rect x="9.5" y="20.5" fill="#FFFFFF" width="13" height="1.5"/>
			<path fill="#455A64" d="M22.5,25h-13C9.224,25,9,24.776,9,24.5v-4C9,20.224,9.224,20,9.5,20h13c0.276,0,0.5,0.224,0.5,0.5v4
				C23,24.776,22.776,25,22.5,25z M10,24h12v-3H10V24z"/>
			<circle fill="#455A64" cx="18.5" cy="22.5" r="0.5"/>
			<circle fill="#455A64" cx="20.5" cy="22.5" r="0.5"/>
			<g>
				<path fill="#455A64" d="M14.541,22.5h-3H14.541z"/>
				<path fill="#455A64" d="M14.541,23h-3c-0.276,0-0.5-0.224-0.5-0.5s0.224-0.5,0.5-0.5h3c0.276,0,0.5,0.224,0.5,0.5
					S14.817,23,14.541,23z"/>
			</g>
		</g>
		<g>
			<rect x="9.5" y="14.5" fill="#80D8FF" width="13" height="4"/>
			<rect x="9.5" y="14.5" fill="#FFFFFF" width="13" height="1.5"/>
			<path fill="#455A64" d="M22.5,19h-13C9.224,19,9,18.776,9,18.5v-4C9,14.224,9.224,14,9.5,14h13c0.276,0,0.5,0.224,0.5,0.5v4
				C23,18.776,22.776,19,22.5,19z M10,18h12v-3H10V18z"/>
			<circle fill="#455A64" cx="18.5" cy="16.5" r="0.5"/>
			<circle fill="#455A64" cx="20.5" cy="16.5" r="0.5"/>
			<g>
				<path fill="#455A64" d="M14.541,16.5h-3H14.541z"/>
				<path fill="#455A64" d="M14.541,17h-3c-0.276,0-0.5-0.224-0.5-0.5s0.224-0.5,0.5-0.5h3c0.276,0,0.5,0.224,0.5,0.5
					S14.817,17,14.541,17z"/>
			</g>
		</g>
	</g>
	<g>
		<path fill="#455A64" d="M5.5,29h-1C4.224,29,4,28.776,4,28.5S4.224,28,4.5,28h1C6.327,28,7,27.327,7,26.5v-3
			C7,23.224,7.224,23,7.5,23S8,23.224,8,23.5v3C8,27.878,6.878,29,5.5,29z"/>
		<path fill="#455A64" d="M4.5,26h-1C3.224,26,3,25.776,3,25.5S3.224,25,3.5,25h1C4.776,25,5,24.776,5,24.5v-2
			C5,22.224,5.224,22,5.5,22S6,22.224,6,22.5v2C6,25.327,5.327,26,4.5,26z"/>
		<circle fill="#455A64" cx="2.5" cy="28.5" r="0.5"/>
		<circle fill="#455A64" cx="1.5" cy="25.5" r="0.5"/>
	</g>
	<g>
		<path fill="#455A64" d="M27.5,29h-1c-1.378,0-2.5-1.122-2.5-2.5v-3c0-0.276,0.224-0.5,0.5-0.5s0.5,0.224,0.5,0.5v3
			c0,0.827,0.673,1.5,1.5,1.5h1c0.276,0,0.5,0.224,0.5,0.5S27.776,29,27.5,29z"/>
		<path fill="#455A64" d="M28.5,26h-1c-0.827,0-1.5-0.673-1.5-1.5v-2c0-0.276,0.224-0.5,0.5-0.5s0.5,0.224,0.5,0.5v2
			c0,0.276,0.224,0.5,0.5,0.5h1c0.276,0,0.5,0.224,0.5,0.5S28.776,26,28.5,26z"/>
		<circle fill="#455A64" cx="29.5" cy="28.5" r="0.5"/>
		<circle fill="#455A64" cx="30.5" cy="25.5" r="0.5"/>
	</g>
</g>
</svg>
