<?xml version="1.0" encoding="utf-8"?>
<!-- Generator: Adobe Illustrator 16.0.0, SVG Export Plug-In . SVG Version: 6.00 Build 0)  -->
<!DOCTYPE svg PUBLIC "-//W3C//DTD SVG 1.1//EN" "http://www.w3.org/Graphics/SVG/1.1/DTD/svg11.dtd">
<svg version="1.1" id="Layer_1" xmlns="http://www.w3.org/2000/svg" xmlns:xlink="http://www.w3.org/1999/xlink" x="0px" y="0px"
	 width="32px" height="32px" viewBox="0 0 32 32" enable-background="new 0 0 32 32" xml:space="preserve">
<g id="cloud_storage">
	<g>
		<circle fill="#FFFFFF" cx="27" cy="16" r="3.5"/>
		<circle fill="#FFFFFF" cx="6" cy="15" r="4.5"/>
		<circle fill="#FFFFFF" cx="21.5" cy="11" r="5.5"/>
		<circle fill="#FFFFFF" cx="12.5" cy="8.5" r="7"/>
		<path fill="#ECEFF1" d="M27,12.5c-0.074,0-0.145,0.017-0.218,0.022C26.921,12.038,27,11.529,27,11
			c0-2.452-1.605-4.528-3.822-5.237C23.694,6.55,24,7.488,24,8.5c0,2.761-2.238,5-5,5c-0.49,0-0.961-0.075-1.407-0.207
			C18.772,12.04,19.5,10.357,19.5,8.5c0-2.745-1.584-5.114-3.884-6.261C16.175,3.198,16.5,4.31,16.5,5.5c0,3.59-2.91,6.5-6.5,6.5
			c-1.613,0-3.087-0.591-4.223-1.564c0.445,1.55,1.42,2.867,2.704,3.774C8.489,14.306,8.5,14.401,8.5,14.5c0,2.209-1.791,4-4,4
			c-0.643,0-1.24-0.166-1.778-0.434C3.543,18.943,4.703,19.5,6,19.5c2.422,0,19.106,0,21,0c1.933,0,3.5-1.567,3.5-3.5
			S28.933,12.5,27,12.5z"/>
		<path fill="#455A64" d="M27,20h-5.5c-0.276,0-0.5-0.224-0.5-0.5s0.224-0.5,0.5-0.5H27c1.654,0,3-1.346,3-3s-1.346-3-3-3
			c-0.012,0.001-0.173,0.02-0.185,0.021c-0.16,0.008-0.32-0.059-0.422-0.185c-0.103-0.126-0.137-0.295-0.092-0.452
			C26.434,11.925,26.5,11.459,26.5,11c0-2.757-2.243-5-5-5c-0.771,0-1.517,0.176-2.217,0.524c-0.129,0.063-0.275,0.068-0.407,0.017
			c-0.132-0.052-0.235-0.158-0.284-0.292C17.651,3.708,15.203,2,12.5,2c-0.76,0-1.504,0.13-2.211,0.386
			c-0.257,0.093-0.546-0.04-0.64-0.3c-0.095-0.26,0.04-0.546,0.3-0.641C10.766,1.15,11.624,1,12.5,1
			c2.942,0,5.622,1.752,6.827,4.411C20.022,5.138,20.751,5,21.5,5c3.309,0,6,2.691,6,6c0,0.339-0.03,0.681-0.09,1.021
			C29.424,12.227,31,13.933,31,16C31,18.206,29.206,20,27,20z M10.208,20H6c-2.757,0-5-2.243-5-5c0-2.466,1.788-4.52,4.17-4.916
			C5.058,9.563,5,9.032,5,8.5c0-1.572,0.481-3.077,1.392-4.354C6.553,3.92,6.865,3.871,7.089,4.03
			C7.314,4.19,7.366,4.502,7.206,4.728C6.417,5.833,6,7.138,6,8.5c0,0.632,0.094,1.264,0.277,1.876
			c0.045,0.148,0.019,0.308-0.07,0.433c-0.09,0.126-0.231,0.204-0.386,0.21C3.679,11.116,2,12.865,2,15c0,2.206,1.794,4,4,4h4.208
			c0.276,0,0.5,0.224,0.5,0.5S10.484,20,10.208,20z"/>
		<g>
			<circle fill="#455A64" cx="8.5" cy="2.5" r="0.5"/>
		</g>
	</g>
	<g>
		<g>
			<path fill="#80D8FF" d="M24.376,19.506c-2.269-0.109-6.876-0.797-6.876-4.997v-1h2l-3-5l-3,5h2c0,0,0-0.344,0,1
				c0,5.435,4.762,5.125,8.876,5.033V19.506z"/>
			<path fill="#455A64" d="M22.287,20c-2.236,0-4.488-0.187-5.889-1.553C15.471,17.542,15,16.208,15,14.483v-0.5h-1.5
				c-0.18,0-0.346-0.098-0.436-0.254c-0.088-0.156-0.086-0.35,0.007-0.504l3-5c0.181-0.301,0.677-0.301,0.857,0l3,5
				c0.093,0.154,0.095,0.348,0.007,0.504C19.846,13.886,19.68,14,19.5,14h-2c-0.276,0-0.5-0.241-0.5-0.517
				C17,13.206,17.224,13,17.5,13h1.117L16.5,9.454L14.383,13H15.5c0.276,0,0.5,0.206,0.5,0.483v1c0,1.466,0.358,2.528,1.096,3.248
				c1.447,1.411,4.178,1.336,6.815,1.27c0.541-0.013,0.075,0,0.589,0c0.276,0,0.5,0.223,0.5,0.5C25,19.776,24.776,20,24.5,20H22.287
				z"/>
			<path fill="#455A64" d="M17.5,14.974c-0.276,0-0.5-0.225-0.5-0.5v-1C17,13.196,17.224,13,17.5,13s0.5,0.196,0.5,0.474v1
				C18,14.749,17.776,14.974,17.5,14.974z"/>
		</g>
		<g>
			<path fill="#80D8FF" d="M16.5,25.509c0,0,0,0.344,0-1c0-5.452-4.793-5.108-8.916-5.015v0.031c2.255,0.1,6.916,0.759,6.916,4.983
				v1h-2l3,5l3-5H16.5z"/>
			<path fill="#455A64" d="M15.5,31c-0.176,0-0.338-0.093-0.429-0.243l-3-5c-0.093-0.154-0.095-0.347-0.007-0.504
				C12.154,25.097,12.32,25,12.5,25h2c0.276,0,0.5,0.224,0.5,0.5S14.776,26,14.5,26h-1.117l2.117,3.528L17.617,26H16.5
				c-0.276,0-0.5-0.224-0.5-0.5v-1c0-1.429-0.34-2.461-1.038-3.158c-1.323-1.321-3.862-1.341-6.298-1.341l-1.188-0.002
				C7.2,19.985,6.987,19.751,7,19.476c0.015-0.275,0.269-0.48,0.523-0.475c0.688,0.033,0.41,0.002,1.139,0
				c2.654,0.004,5.391,0.02,7.006,1.633C16.564,21.528,17,22.793,17,24.5V25h1.5c0.18,0,0.346,0.097,0.436,0.253
				c0.088,0.157,0.086,0.35-0.007,0.504l-3,5C15.838,30.907,15.676,31,15.5,31z"/>
			<path fill="#455A64" d="M14.5,26c-0.276,0-0.5-0.224-0.5-0.5v-1c0-0.276,0.224-0.5,0.5-0.5s0.5,0.224,0.5,0.5v1
				C15,25.776,14.776,26,14.5,26z"/>
		</g>
		<g>
			<circle fill="#455A64" cx="7.5" cy="27.5" r="0.5"/>
			<circle fill="#455A64" cx="7.5" cy="25.5" r="0.5"/>
			<circle fill="#455A64" cx="7.5" cy="23.5" r="0.5"/>
		</g>
		<g>
			<circle fill="#455A64" cx="24.5" cy="27.5" r="0.5"/>
			<circle fill="#455A64" cx="24.5" cy="25.5" r="0.5"/>
			<circle fill="#455A64" cx="24.5" cy="23.5" r="0.5"/>
		</g>
	</g>
</g>
</svg>
