<?xml version="1.0" encoding="utf-8"?>
<!-- Generator: Adobe Illustrator 16.0.0, SVG Export Plug-In . SVG Version: 6.00 Build 0)  -->
<!DOCTYPE svg PUBLIC "-//W3C//DTD SVG 1.1//EN" "http://www.w3.org/Graphics/SVG/1.1/DTD/svg11.dtd">
<svg version="1.1" id="Layer_1" xmlns="http://www.w3.org/2000/svg" xmlns:xlink="http://www.w3.org/1999/xlink" x="0px" y="0px"
	 width="32px" height="32px" viewBox="0 0 32 32" enable-background="new 0 0 32 32" xml:space="preserve">
<g id="data_base_hand_file">
	<g>
		<g>
			<g>
				<polygon fill="#FFF176" points="9.5,5.5 9.5,20.5 25.5,20.5 25.5,1.5 13.5,1.5 				"/>
			</g>
		</g>
		<g>
			<g>
				<path fill="#455A64" d="M25.5,16c-0.276,0-0.5-0.224-0.5-0.5V2H13.707L10,5.707V15.5c0,0.276-0.224,0.5-0.5,0.5S9,15.776,9,15.5
					v-10c0-0.133,0.053-0.26,0.146-0.354l4-4C13.24,1.053,13.367,1,13.5,1h12C25.776,1,26,1.224,26,1.5v14
					C26,15.776,25.776,16,25.5,16z"/>
			</g>
		</g>
		<g>
			<g>
				<polygon fill="#FFFFFF" points="13.5,5.5 9.5,5.5 13.5,1.5 				"/>
			</g>
			<g>
				<path fill="#455A64" d="M13.5,6h-4C9.298,6,9.115,5.879,9.038,5.691C8.96,5.504,9.003,5.289,9.146,5.146l4-4
					c0.143-0.143,0.357-0.187,0.545-0.108C13.879,1.115,14,1.298,14,1.5v4C14,5.776,13.776,6,13.5,6z M10.707,5H13V2.707L10.707,5z"
					/>
			</g>
		</g>
	</g>
	<g id="profit_5_">
		<g>
			<g>
				<g>
					<path fill="#FFFFFF" d="M15.416,19.417c-2.337-2.348-6.132-2.353-8.476-0.009l-2.864,3.364l4.95,4.449l1.247-1.086
						c0.417-0.363,1.202-0.657,1.754-0.657h5c0.553,0,1.421-0.151,1.941-0.338l5.391-1.938l3.994-3.993
						c0.5-0.5-0.469-2.969-2.971-1.47c-1.32,0.794-2.063,1.692-2.875,2.257l-4.068,1.235c-0.527,0.16-1.27-0.027-1.656-0.423
						L15.416,19.417z"/>
				</g>
			</g>
			<path fill="#FFE0B2" d="M17.027,25.479c0.553,0,1.421-0.151,1.941-0.338l5.391-1.938l3.994-3.993c0.5-0.5-0.469-2.969-2.971-1.47
				c-1.32,0.794-2.063,1.692-2.875,2.257l-4.068,1.235c-0.527,0.16-1.27-0.027-1.656-0.423l-1.367-1.392
				c-0.499-0.501-1.073-0.873-1.677-1.161C11.875,17.92,9.442,18.537,8,19.979l-2,2l3.506,4.826l0.768-0.669
				c0.417-0.363,1.202-0.657,1.754-0.657H17.027z"/>
			<path fill="#455A64" d="M6.692,20.2c-0.114,0-0.229-0.039-0.323-0.119c-0.21-0.179-0.236-0.495-0.057-0.705l0.248-0.291
				c2.065-2.069,5.138-2.525,7.676-1.164c0.243,0.13,0.335,0.433,0.204,0.677c-0.13,0.243-0.433,0.334-0.677,0.204
				c-2.145-1.15-4.745-0.765-6.469,0.96l-0.22,0.261C6.975,20.14,6.834,20.2,6.692,20.2z"/>
			<path fill="#455A64" d="M9.5,27c-0.188,0-0.368-0.106-0.453-0.287c-0.117-0.25-0.01-0.548,0.24-0.666l0.715-0.336
				C10.513,25.296,11.339,25,12,25h5c0.469,0,1.31-0.154,1.8-0.33l5.285-1.9L28,18.856c0.013-0.066-0.062-0.531-0.429-0.841
				c-0.455-0.384-1.122-0.331-1.932,0.153c-0.764,0.459-1.335,0.966-1.84,1.413c-0.342,0.303-0.665,0.588-1.007,0.826
				c-0.043,0.03-0.09,0.053-0.14,0.068l-4.068,1.235c-0.268,0.081-0.544-0.069-0.624-0.333c-0.08-0.265,0.069-0.544,0.333-0.624
				l3.991-1.212c0.272-0.196,0.542-0.435,0.852-0.709c0.537-0.476,1.146-1.014,1.988-1.521c2.023-1.21,3.113-0.106,3.4,0.261
				c0.525,0.673,0.607,1.566,0.182,1.991l-3.994,3.993c-0.052,0.052-0.115,0.092-0.184,0.117l-5.391,1.938
				C18.54,25.826,17.581,26,17,26h-5c-0.439,0-1.079,0.235-1.398,0.513c-0.035,0.03-0.074,0.056-0.116,0.076l-0.773,0.364
				C9.644,26.985,9.572,27,9.5,27z"/>
			<g>
				<g>
					<g>
						<path fill="#FFE0B2" d="M14.027,21.5h7.395c0-0.5,0-3.002-3.531-3h-3.732L14.027,21.5z"/>
						<path fill="#455A64" d="M21.422,22h-7.395c-0.276,0-0.5-0.224-0.5-0.5s0.224-0.5,0.5-0.5h6.862
							c-0.041-0.273-0.13-0.607-0.33-0.918C20.099,19.364,19.202,19,17.895,19c-0.001,0-0.003,0-0.004,0h-3.732
							c-0.276,0-0.5-0.224-0.5-0.5s0.224-0.5,0.5-0.5h3.732c0.001,0,0.003,0,0.004,0c1.67,0,2.85,0.519,3.506,1.542
							c0.521,0.812,0.521,1.675,0.521,1.958C21.922,21.776,21.698,22,21.422,22z"/>
					</g>
				</g>
			</g>
		</g>
	</g>
	<g>
		<polygon fill="#80D8FF" points="1.861,24.5 4.753,21.603 10.41,27.26 7.518,30.158 		"/>
		
			<rect x="1.614" y="22.905" transform="matrix(0.7065 -0.7078 0.7078 0.7065 -15.4908 9.4615)" fill="#FFFFFF" width="4.094" height="1"/>
		
			<rect x="6.21" y="27.001" transform="matrix(-0.7065 0.7078 -0.7078 -0.7065 33.9087 41.9391)" fill="#73C2E6" width="4.094" height="2"/>
		<path fill="#455A64" d="M8.236,30.854c-0.194,0.194-0.512,0.195-0.707,0l0,0c-0.195-0.196-0.195-0.513,0-0.707l2.881-2.887
			l-5.657-5.657l-2.881,2.886c-0.195,0.195-0.512,0.195-0.707,0l0,0c-0.196-0.194-0.195-0.512,0-0.707l3.187-3.191
			c0.195-0.195,0.575-0.229,0.77-0.033l6.364,6.364c0.195,0.195,0.133,0.544-0.063,0.739L8.236,30.854z"/>
	</g>
	<g>
		<g>
			<g>
				<path fill="#455A64" d="M17.5,16c-0.827,0-1.5-0.673-1.5-1.5s0.673-1.5,1.5-1.5s1.5,0.673,1.5,1.5S18.327,16,17.5,16z M17.5,14
					c-0.275,0-0.5,0.225-0.5,0.5s0.225,0.5,0.5,0.5s0.5-0.225,0.5-0.5S17.775,14,17.5,14z"/>
			</g>
		</g>
	</g>
	<g>
		<g>
			<g>
				<path fill="#455A64" d="M13.5,16c-0.827,0-1.5-0.673-1.5-1.5s0.673-1.5,1.5-1.5s1.5,0.673,1.5,1.5S14.327,16,13.5,16z M13.5,14
					c-0.275,0-0.5,0.225-0.5,0.5s0.225,0.5,0.5,0.5s0.5-0.225,0.5-0.5S13.775,14,13.5,14z"/>
			</g>
		</g>
	</g>
	<g>
		<g>
			<g>
				<path fill="#455A64" d="M17.5,8C16.673,8,16,7.327,16,6.5S16.673,5,17.5,5S19,5.673,19,6.5S18.327,8,17.5,8z M17.5,6
					C17.225,6,17,6.225,17,6.5S17.225,7,17.5,7S18,6.775,18,6.5S17.775,6,17.5,6z"/>
			</g>
		</g>
	</g>
	<g>
		<g>
			<g>
				<path fill="#455A64" d="M21.5,8C21.224,8,21,7.776,21,7.5V6c-0.276,0-0.5-0.224-0.5-0.5S20.724,5,21,5h0.5
					C21.776,5,22,5.224,22,5.5v2C22,7.776,21.776,8,21.5,8z"/>
			</g>
		</g>
	</g>
	<g>
		<g>
			<g>
				<path fill="#455A64" d="M20.5,12c-0.827,0-1.5-0.673-1.5-1.5S19.673,9,20.5,9S22,9.673,22,10.5S21.327,12,20.5,12z M20.5,10
					c-0.275,0-0.5,0.225-0.5,0.5s0.225,0.5,0.5,0.5s0.5-0.225,0.5-0.5S20.775,10,20.5,10z"/>
			</g>
		</g>
	</g>
	<g>
		<g>
			<g>
				<path fill="#455A64" d="M13.5,12c-0.276,0-0.5-0.224-0.5-0.5V10c-0.276,0-0.5-0.224-0.5-0.5S12.724,9,13,9h0.5
					C13.776,9,14,9.224,14,9.5v2C14,11.776,13.776,12,13.5,12z"/>
			</g>
		</g>
	</g>
	<g>
		<g>
			<g>
				<path fill="#455A64" d="M21.5,16c-0.276,0-0.5-0.224-0.5-0.5V14c-0.276,0-0.5-0.224-0.5-0.5S20.724,13,21,13h0.5
					c0.276,0,0.5,0.224,0.5,0.5v2C22,15.776,21.776,16,21.5,16z"/>
			</g>
		</g>
	</g>
	<g>
		<g>
			<g>
				<path fill="#455A64" d="M16.5,12c-0.276,0-0.5-0.224-0.5-0.5V10c-0.276,0-0.5-0.224-0.5-0.5S15.724,9,16,9h0.5
					C16.776,9,17,9.224,17,9.5v2C17,11.776,16.776,12,16.5,12z"/>
			</g>
		</g>
	</g>
</g>
</svg>
