<?xml version="1.0" encoding="utf-8"?>
<!-- Generator: Adobe Illustrator 16.0.0, SVG Export Plug-In . SVG Version: 6.00 Build 0)  -->
<!DOCTYPE svg PUBLIC "-//W3C//DTD SVG 1.1//EN" "http://www.w3.org/Graphics/SVG/1.1/DTD/svg11.dtd">
<svg version="1.1" id="Layer_1" xmlns="http://www.w3.org/2000/svg" xmlns:xlink="http://www.w3.org/1999/xlink" x="0px" y="0px"
	 width="32px" height="32px" viewBox="0 0 32 32" enable-background="new 0 0 32 32" xml:space="preserve">
<g id="Cloud_x2C__refresh_x2C__reload_x2C__sync_x2C__update">
	<g>
		<g id="database">
			<g id="funding_x2C__subsidization_x2C__cloud">
				<g>
					<g>
						<g>
							<g>
								<path fill="#FFFFFF" d="M26.943,21.651c-0.676,0-1.334-0.193-1.906-0.559l-0.119-0.076l-0.13,0.053
									c-0.936,0.376-2.113,0.582-3.317,0.582c-1.309,0-2.566-0.241-3.541-0.681l-0.097-0.043l-0.102,0.033
									c-1.361,0.451-2.906,0.69-4.467,0.69c-1.567,0-3.118-0.241-4.487-0.697l-0.12-0.04L8.55,20.98
									c-0.729,0.438-1.559,0.671-2.398,0.671C3.586,21.651,1.5,19.564,1.5,17c0-2.379,1.781-4.365,4.145-4.622l0.364-0.04
									L5.866,12C5.51,11.156,5.33,10.262,5.33,9.34c0-3.771,3.068-6.84,6.84-6.84c2.811,0,5.303,1.689,6.348,4.303l0.111,0.277
									l0.265-0.135c0.813-0.408,1.68-0.615,2.577-0.615c3.169,0,5.746,2.577,5.746,5.746c0,0.713-0.135,1.418-0.399,2.094
									l-0.142,0.361l0.387,0.013c1.927,0.064,3.438,1.624,3.438,3.55C30.5,20.056,28.904,21.651,26.943,21.651z"/>
							</g>
						</g>
					</g>
				</g>
				<g>
					<g>
						<g>
							<g>
								<path fill="#ECEFF1" d="M27.054,14.817l-0.775-0.026l0.284-0.721c0.253-0.645,0.381-1.314,0.381-1.994
									c0-1.688-0.771-3.199-1.976-4.205c0.001,0.004,0.003,0.007,0.005,0.01c-0.186-0.154-0.382-0.297-0.586-0.428
									c-0.01-0.007-0.023-0.014-0.034-0.021c-0.192-0.121-0.396-0.229-0.604-0.325c-0.01-0.005-0.019-0.01-0.028-0.014
									c0.31,0.686,0.487,1.443,0.487,2.246c0,3.021-2.45,5.471-5.473,5.471c-0.778,0-1.515-0.169-2.187-0.461
									c-0.02-0.026-0.036-0.053-0.053-0.078c1.37-1.203,2.239-2.965,2.239-4.932c0-0.799-0.153-1.557-0.414-2.263
									c0.002-0.005,0.004-0.01,0.005-0.015l-0.063-0.158c-0.46-1.15-1.216-2.111-2.154-2.818c0.008,0.014,0.018,0.025,0.025,0.039
									c-0.178-0.137-0.359-0.27-0.551-0.387c0.606,0.996,0.963,2.16,0.963,3.413c0,3.626-2.938,6.565-6.566,6.565
									c-1.253,0-2.417-0.355-3.412-0.965c0.565,0.928,1.357,1.701,2.293,2.252c0.01,0.117,0.026,0.234,0.026,0.354
									c0,2.417-1.961,4.378-4.378,4.378c-0.787,0-1.522-0.211-2.16-0.574c0.003,0.006,0.008,0.011,0.01,0.016
									c0.225,0.389,0.51,1.008,0.838,1.311c-0.003-0.001-0.007-0.002-0.01-0.002c0.781,0.72,1.82,1.165,2.964,1.165
									c0.79,0,1.57-0.22,2.257-0.633l0.215-0.13l0.24,0.08c1.341,0.446,2.863,0.683,4.401,0.683c1.531,0,3.047-0.233,4.381-0.676
									l0.202-0.067l0.194,0.087c0.94,0.423,2.158,0.656,3.429,0.656c1.171,0,2.313-0.2,3.215-0.563l0.262-0.104l0.237,0.151
									c0.527,0.337,1.136,0.241,1.759,0.241c1.811,0,3.283-1.473,3.283-3.283C30.227,16.315,28.833,14.877,27.054,14.817z"/>
							</g>
						</g>
					</g>
				</g>
				<g>
					<g>
						<g>
							<g>
								<path fill="#455A64" d="M26.943,22.151c-0.77,0-1.522-0.22-2.175-0.637l-0.12-0.076c-0.232-0.149-0.301-0.458-0.151-0.691
									c0.148-0.233,0.458-0.299,0.69-0.152l0.119,0.076c0.491,0.314,1.058,0.48,1.637,0.48c1.686,0,3.057-1.372,3.057-3.058
									c0-1.655-1.298-2.995-2.954-3.05l-0.387-0.013c-0.162-0.005-0.312-0.089-0.401-0.225c-0.089-0.136-0.106-0.306-0.048-0.458
									l0.142-0.361c0.242-0.618,0.365-1.261,0.365-1.911c0-2.893-2.354-5.246-5.246-5.246c-0.818,0-1.609,0.189-2.353,0.562
									l-0.263,0.133c-0.124,0.064-0.271,0.071-0.402,0.023c-0.131-0.049-0.236-0.152-0.288-0.282l-0.111-0.277
									C17.085,4.565,14.775,3,12.17,3c-0.639,0-1.269,0.095-1.872,0.282C10.03,3.365,9.753,3.217,9.672,2.953
									C9.59,2.689,9.737,2.409,10.001,2.327C10.7,2.11,11.431,2,12.17,2c2.936,0,5.547,1.716,6.719,4.394
									c0.821-0.375,1.688-0.563,2.582-0.563c3.444,0,6.246,2.802,6.246,6.246c0,0.675-0.11,1.343-0.329,1.99
									C29.437,14.287,31,16,31,18.094C31,20.331,29.181,22.151,26.943,22.151z"/>
								<path fill="#455A64" d="M6.151,22.151C3.311,22.151,1,19.84,1,17c0-2.535,1.827-4.668,4.297-5.079
									c-0.31-0.823-0.467-1.69-0.467-2.582c0-1.524,0.465-2.987,1.345-4.23C6.336,4.884,6.647,4.833,6.872,4.99
									C7.098,5.15,7.15,5.462,6.991,5.688C6.231,6.76,5.83,8.023,5.83,9.34c0,0.856,0.167,1.686,0.497,2.466l0.143,0.338
									c0.062,0.146,0.05,0.312-0.03,0.448c-0.079,0.136-0.219,0.227-0.376,0.244l-0.364,0.04C3.59,13.104,2,14.877,2,17
									c0,2.289,1.862,4.151,4.151,4.151c0.257,0,0.511-0.024,0.756-0.071c0.274-0.052,0.534,0.126,0.586,0.397
									s-0.126,0.533-0.396,0.585C6.789,22.122,6.471,22.151,6.151,22.151z"/>
							</g>
						</g>
					</g>
				</g>
			</g>
		</g>
		<g>
			<path fill="#FF8A80" d="M18.376,29.506c-2.269-0.109-6.876-0.797-6.876-4.997v-6h2l-3-5l-3,5h2c0,0,0,4.656,0,6
				c0,5.435,4.762,5.125,8.876,5.033V29.506z"/>
			<path fill="#FF8A80" d="M22.5,24.509c0,0,0-4.656,0-6c0-5.452-4.793-5.108-8.916-5.015v0.031c2.255,0.1,6.916,0.759,6.916,4.983
				v6h-2l3,5l3-5H22.5z"/>
			<path fill="#455A64" d="M16.287,30c-2.236,0-4.488-0.187-5.889-1.553C9.471,27.542,9,26.208,9,24.483v-5.5H7.5
				c-0.18,0-0.346-0.098-0.436-0.254c-0.088-0.156-0.086-0.35,0.007-0.504l3-5c0.181-0.301,0.677-0.301,0.857,0l3,5
				c0.093,0.154,0.095,0.348,0.007,0.504C13.846,18.886,13.68,19,13.5,19h-2c-0.276,0-0.5-0.241-0.5-0.517
				C11,18.206,11.224,18,11.5,18h1.117L10.5,14.454L8.383,18H9.5c0.276,0,0.5,0.206,0.5,0.483v6c0,1.466,0.358,2.528,1.096,3.248
				c1.447,1.411,4.178,1.336,6.815,1.27c0.541-0.013,0.075,0,0.589,0c0.276,0,0.5,0.223,0.5,0.5C19,29.776,18.776,30,18.5,30H16.287
				z"/>
			<path fill="#455A64" d="M21.5,30c-0.176,0-0.338-0.093-0.429-0.243l-3-5c-0.093-0.154-0.095-0.347-0.007-0.504
				C18.154,24.097,18.32,24,18.5,24h2c0.276,0,0.5,0.224,0.5,0.5S20.776,25,20.5,25h-1.117l2.117,3.528L23.617,25H22.5
				c-0.276,0-0.5-0.224-0.5-0.5v-6c0-1.429-0.34-2.461-1.038-3.158c-1.323-1.321-3.862-1.341-6.298-1.341l-1.188-0.002
				C13.2,13.985,12.987,13.751,13,13.476c0.015-0.275,0.269-0.48,0.523-0.475c0.688,0.033,0.41,0.002,1.139,0
				c2.654,0.004,5.391,0.02,7.006,1.633C22.564,15.528,23,16.793,23,18.5V24h1.5c0.18,0,0.346,0.097,0.436,0.253
				c0.088,0.157,0.086,0.35-0.007,0.504l-3,5C21.838,29.907,21.676,30,21.5,30z"/>
			<path fill="#455A64" d="M11.5,23.974c-0.276,0-0.5-0.225-0.5-0.5v-5C11,18.196,11.224,18,11.5,18s0.5,0.196,0.5,0.474v5
				C12,23.749,11.776,23.974,11.5,23.974z"/>
			<path fill="#455A64" d="M20.5,25c-0.276,0-0.5-0.224-0.5-0.5v-5c0-0.276,0.224-0.5,0.5-0.5s0.5,0.224,0.5,0.5v5
				C21,24.776,20.776,25,20.5,25z"/>
			<circle fill="#455A64" cx="11.5" cy="25.5" r="0.5"/>
			<circle fill="#455A64" cx="20.5" cy="17.5" r="0.5"/>
		</g>
	</g>
	<g>
		<circle fill="#455A64" cx="8.5" cy="3.5" r="0.5"/>
	</g>
</g>
</svg>
