<?xml version="1.0" encoding="utf-8"?>
<!-- Generator: Adobe Illustrator 16.0.0, SVG Export Plug-In . SVG Version: 6.00 Build 0)  -->
<!DOCTYPE svg PUBLIC "-//W3C//DTD SVG 1.1//EN" "http://www.w3.org/Graphics/SVG/1.1/DTD/svg11.dtd">
<svg version="1.1" id="Layer_1" xmlns="http://www.w3.org/2000/svg" xmlns:xlink="http://www.w3.org/1999/xlink" x="0px" y="0px"
	 width="32px" height="32px" viewBox="0 0 32 32" enable-background="new 0 0 32 32" xml:space="preserve">
<g id="network_connection">
	<g id="LAN_1_">
		<g>
			<path fill="#A9E4FF" d="M2.5,12V2.5c0-0.552,0.447-1,1-1h14c0.553,0,1,0.448,1,1V12H2.5z"/>
			<path fill="#455A64" d="M18.5,12c-0.276,0-0.5-0.224-0.5-0.5v-9C18,2.224,17.775,2,17.5,2h-14C3.225,2,3,2.224,3,2.5v9
				C3,11.776,2.776,12,2.5,12S2,11.776,2,11.5v-9C2,1.673,2.673,1,3.5,1h14C18.327,1,19,1.673,19,2.5v9C19,11.776,18.776,12,18.5,12
				z"/>
			<g>
				<g>
					<path fill="#FFF176" d="M19.5,13c0,0.275-0.225,0.5-0.5,0.5H2c-0.275,0-0.5-0.225-0.5-0.5H19.5z"/>
					<path fill="#455A64" d="M19,14H2c-0.552,0-1-0.449-1-1h19C20,13.551,19.552,14,19,14z"/>
				</g>
				<path fill="#455A64" d="M19,14H2c-0.552,0-1-0.449-1-1c0-0.276,0.224-0.5,0.5-0.5S2,12.724,2,13h17c0-0.276,0.224-0.5,0.5-0.5
					S20,12.724,20,13C20,13.551,19.552,14,19,14z"/>
			</g>
		</g>
		<g>
			<circle fill="#FF8A80" cx="4.5" cy="26.5" r="2"/>
			<path fill="#455A64" d="M4.5,29C3.121,29,2,27.878,2,26.5S3.121,24,4.5,24S7,25.122,7,26.5S5.879,29,4.5,29z M4.5,25
				C3.673,25,3,25.673,3,26.5S3.673,28,4.5,28S6,27.327,6,26.5S5.327,25,4.5,25z"/>
		</g>
		<path fill="#455A64" d="M13.5,27h-7C6.224,27,6,26.776,6,26.5S6.224,26,6.5,26h7c0.276,0,0.5,0.224,0.5,0.5S13.776,27,13.5,27z"/>
		<path fill="#455A64" d="M4.5,25C4.224,25,4,24.776,4,24.5v-9C4,15.224,4.224,15,4.5,15S5,15.224,5,15.5v9
			C5,24.776,4.776,25,4.5,25z"/>
		<g>
			<circle fill="#FF8A80" cx="27.5" cy="5.5" r="2"/>
			<path fill="#455A64" d="M27.5,8C26.121,8,25,6.878,25,5.5S26.121,3,27.5,3S30,4.122,30,5.5S28.879,8,27.5,8z M27.5,4
				C26.673,4,26,4.673,26,5.5S26.673,7,27.5,7S29,6.327,29,5.5S28.327,4,27.5,4z"/>
		</g>
		<path fill="#455A64" d="M25,6h-4.5C20.224,6,20,5.776,20,5.5S20.224,5,20.5,5H25c0.276,0,0.5,0.224,0.5,0.5S25.276,6,25,6z"/>
		<path fill="#455A64" d="M27.5,15c-0.276,0-0.5-0.224-0.5-0.5v-7C27,7.224,27.224,7,27.5,7S28,7.224,28,7.5v7
			C28,14.776,27.776,15,27.5,15z"/>
		<circle fill="#FFFFFF" cx="12.5" cy="10.5" r="0.5"/>
		<circle fill="#FFFFFF" cx="10.5" cy="10.5" r="0.5"/>
		<circle fill="#FFFFFF" cx="8.5" cy="10.5" r="0.5"/>
	</g>
	<g>
		<g>
			<g>
				<g>
					<g>
						<path fill="#FFFFFF" d="M30.5,23.5c0,4.139-3.359,7.5-7.5,7.5c-4.144,0-7.5-3.361-7.5-7.5c0-4.141,3.356-7.5,7.5-7.5
							C27.141,16,30.5,19.359,30.5,23.5z"/>
					</g>
				</g>
			</g>
			<g>
				<g>
					<path fill="#80D8FF" d="M30.5,23.5c0-2.277-1.02-4.313-2.623-5.689C26.861,17.297,25.717,17,24.5,17
						c-4.144,0-7.5,3.359-7.5,7.5c0,2.276,1.019,4.313,2.621,5.689C20.638,30.703,21.783,31,23,31C27.141,31,30.5,27.639,30.5,23.5z
						"/>
				</g>
			</g>
			<g>
				<g>
					<path fill="#73C2E6" d="M27.877,17.811c-0.152-0.078-0.314-0.14-0.473-0.207c0.693,1.135,1.096,2.469,1.096,3.896
						c0,4.139-3.359,7.5-7.5,7.5c-1.033,0-2.01-0.225-2.904-0.604c0.412,0.675,0.928,1.28,1.525,1.793
						C20.638,30.703,21.783,31,23,31c4.141,0,7.5-3.361,7.5-7.5C30.5,21.223,29.48,19.187,27.877,17.811z"/>
				</g>
			</g>
			<g>
				<g>
					<path fill="#455A64" d="M23,31.5c-4.411,0-8-3.589-8-8s3.589-8,8-8s8,3.589,8,8S27.411,31.5,23,31.5z M23,16.5
						c-3.859,0-7,3.141-7,7s3.141,7,7,7s7-3.141,7-7S26.859,16.5,23,16.5z"/>
				</g>
			</g>
		</g>
		<g>
			<g>
				<path fill="#455A64" d="M17.783,29.322c-0.185,0-0.361-0.103-0.449-0.279c-0.121-0.248-0.02-0.548,0.229-0.67
					c3.422-1.68,7.492-1.82,11.02-0.382c0.256,0.104,0.379,0.396,0.275,0.651c-0.104,0.256-0.398,0.378-0.652,0.274
					c-3.266-1.329-7.033-1.2-10.201,0.354C17.933,29.306,17.857,29.322,17.783,29.322z"/>
			</g>
		</g>
		<g>
			<g>
				<path fill="#455A64" d="M23.5,20c-1.433,0-2.844-0.224-4.193-0.664c-0.262-0.086-0.406-0.368-0.32-0.631s0.366-0.405,0.631-0.32
					c2.723,0.89,5.749,0.808,8.416-0.233c0.256-0.102,0.547,0.027,0.647,0.284s-0.026,0.547-0.284,0.647
					C26.837,19.691,25.189,20,23.5,20z"/>
			</g>
		</g>
		<g>
			<g>
				<g>
					<path fill="#455A64" d="M22.999,31.481c-0.097,0-0.194-0.028-0.278-0.085C20.078,29.626,18.5,26.674,18.5,23.5
						c0-3.176,1.578-6.128,4.221-7.896c0.169-0.113,0.388-0.113,0.557,0c2.645,1.77,4.223,4.722,4.223,7.896
						c0,3.174-1.578,6.126-4.223,7.896C23.193,31.453,23.096,31.481,22.999,31.481z M22.999,16.628
						C20.802,18.229,19.5,20.772,19.5,23.5c0,2.727,1.302,5.271,3.499,6.872c2.198-1.602,3.501-4.146,3.501-6.872
						C26.5,20.772,25.197,18.229,22.999,16.628z"/>
				</g>
			</g>
		</g>
		<g>
			<g>
				<path fill="#455A64" d="M30.083,24.041H17.521c-0.276,0-0.5-0.224-0.5-0.5s0.224-0.5,0.5-0.5h12.562c0.276,0,0.5,0.224,0.5,0.5
					S30.359,24.041,30.083,24.041z"/>
			</g>
		</g>
	</g>
</g>
</svg>
