<?xml version="1.0" encoding="utf-8"?>
<!-- Generator: Adobe Illustrator 16.0.0, SVG Export Plug-In . SVG Version: 6.00 Build 0)  -->
<!DOCTYPE svg PUBLIC "-//W3C//DTD SVG 1.1//EN" "http://www.w3.org/Graphics/SVG/1.1/DTD/svg11.dtd">
<svg version="1.1" id="Layer_1" xmlns="http://www.w3.org/2000/svg" xmlns:xlink="http://www.w3.org/1999/xlink" x="0px" y="0px"
	 width="32px" height="32px" viewBox="0 0 32 32" enable-background="new 0 0 32 32" xml:space="preserve">
<g id="social_media_marketing">
	<g>
		<g>
			<path fill="#FFE0B2" d="M24.5,13.489v0.729h3v-0.729c0.604-0.456,1-1.173,1-1.989v-1c0-1.381,0-3-2.5-3s-2.5,1.619-2.5,3v1
				C23.5,12.316,23.896,13.033,24.5,13.489z"/>
			<path fill="#E6CAA0" d="M28.781,16.313V14.75L27.5,14.289v-0.8c0.604-0.456,1-1.173,1-1.989v-1c0-1.381,0-3-2.5-3
				c-0.282,0-0.527,0.023-0.75,0.063C26.996,7.865,27,9.275,27,10.5v1c0,0.816-0.249,1.989-1,1.989c-1.28,0-1.249-0.333-1.249-0.333
				L24.5,14.289l-1.063,0.383v1.641H28.781z"/>
		</g>
		<g>
			<g>
				<path fill="#FF8A80" d="M30.5,20.309V17c0-0.77-0.577-1.545-1.314-1.766L27.5,14.477L26,15.5l-1.5-1.024l-1.746,0.78
					C22.077,15.455,21.5,16.23,21.5,17v3.309l4.5,2.25L30.5,20.309z"/>
			</g>
		</g>
		<g>
			<path fill="#455A64" d="M30.5,21.01c-0.276,0-0.5-0.225-0.5-0.5V17c0-0.551-0.43-1.129-0.958-1.287l-1.747-0.78
				C27.115,14.852,27,14.674,27,14.477v-0.988c0-0.156,0.073-0.304,0.198-0.398C27.708,12.705,28,12.125,28,11.5V11
				c0-0.15,0.005-0.311,0.01-0.475c0.021-0.744,0.047-1.588-0.404-2.052C27.301,8.159,26.761,8,26,8s-1.301,0.159-1.605,0.474
				c-0.451,0.464-0.426,1.308-0.404,2.052C23.995,10.689,24,10.85,24,11v0.5c0,0.625,0.292,1.205,0.802,1.59
				C24.927,13.185,25,13.332,25,13.488v0.987c0,0.197-0.116,0.376-0.296,0.456l-1.43,0.639c-0.253,0.113-0.548,0-0.66-0.252
				c-0.113-0.252,0-0.548,0.252-0.66L24,14.151v-0.427c-0.639-0.57-1-1.369-1-2.225V11c0-0.142-0.005-0.291-0.009-0.445
				c-0.026-0.896-0.06-2.01,0.686-2.777C24.185,7.254,24.944,7,26,7s1.815,0.254,2.323,0.777c0.745,0.768,0.712,1.882,0.686,2.777
				C29.005,10.709,29,10.858,29,11v0.5c0,0.855-0.361,1.654-1,2.225v0.428l1.391,0.625C30.281,15.041,31,16.006,31,17v3.51
				C31,20.785,30.776,21.01,30.5,21.01z"/>
		</g>
	</g>
	<g>
		<path fill="#FFE0B2" d="M4.5,13.489v0.729h3v-0.729c0.604-0.456,1-1.173,1-1.989v-1c0-1.381,0-3-2.5-3s-2.5,1.619-2.5,3v1
			C3.5,12.316,3.896,13.033,4.5,13.489z"/>
		<path fill="#E6CAA0" d="M8.781,16.313V14.75L7.5,14.289v-0.8c0.604-0.456,1-1.173,1-1.989v-1c0-1.381,0-3-2.5-3
			c-0.282,0-0.527,0.023-0.75,0.063C6.996,7.865,7,9.275,7,10.5v1c0,0.816-0.249,1.989-1,1.989c-1.28,0-1.249-0.333-1.249-0.333
			L4.5,14.289l-1.063,0.383v1.641H8.781z"/>
		<g>
			<g>
				<path fill="#FFFFFF" d="M1.5,20.309V17c0-0.77,0.577-1.545,1.314-1.766L4.5,14.477L6,16l1.5-1.524l1.746,0.78
					C9.923,15.455,10.5,16.23,10.5,17v2.309L6,22.559L1.5,20.309z"/>
			</g>
		</g>
		<path fill="#1DE9B6" d="M10.5,17c0-0.77-0.577-1.545-1.254-1.744l-1.745-0.779H7.5L6,15.5l-1.103-0.752l-1.083,0.486
			C3.077,15.455,2.5,16.23,2.5,17v3.809l3.5,1.75l4.5-3.25V17z"/>
		<g>
			<path fill="#455A64" d="M1.5,21.01c-0.276,0-0.5-0.225-0.5-0.5V17c0-0.994,0.719-1.959,1.671-2.245L4,14.154v-0.43
				c-0.639-0.57-1-1.369-1-2.225V11c0-0.142-0.005-0.291-0.009-0.445c-0.026-0.896-0.06-2.01,0.686-2.777C4.185,7.254,4.944,7,6,7
				s1.815,0.254,2.323,0.777c0.745,0.768,0.712,1.882,0.686,2.777C9.005,10.709,9,10.858,9,11v0.5c0,0.855-0.361,1.654-1,2.225
				v0.427l1.134,0.507c0.252,0.112,0.365,0.408,0.252,0.66c-0.112,0.252-0.408,0.365-0.66,0.252l-1.43-0.639
				C7.116,14.852,7,14.673,7,14.476v-0.987c0-0.156,0.073-0.304,0.198-0.398C7.708,12.705,8,12.125,8,11.5V11
				c0-0.15,0.005-0.311,0.01-0.475c0.021-0.744,0.047-1.588-0.404-2.052C7.301,8.159,6.761,8,6,8S4.699,8.159,4.395,8.474
				C3.943,8.938,3.969,9.781,3.99,10.525C3.995,10.689,4,10.85,4,11v0.5c0,0.625,0.292,1.205,0.802,1.59
				C4.927,13.185,5,13.332,5,13.488v0.988c0,0.197-0.115,0.375-0.295,0.456L3.02,15.689C2.43,15.871,2,16.449,2,17v3.51
				C2,20.785,1.776,21.01,1.5,21.01z"/>
		</g>
	</g>
	<g>
		<path fill="#FFFFFF" d="M6.5,25.662V20c0-1.162,0.927-2.47,2.024-2.854L16,14.529l7.476,2.617C24.573,17.53,25.5,18.838,25.5,20
			v5.662L16,30.461L6.5,25.662z"/>
	</g>
	<path fill="#80D8FF" d="M8,26.42l8,4.041l9.5-4.799V20c0-1.162-0.927-2.47-2.024-2.854l-6.726-2.354l-6.726,2.354
		C8.927,17.53,8,18.838,8,20V26.42z"/>
	<path fill="#A9E4FF" d="M16.19,14.988l-6.166,2.158C8.927,17.53,8,18.838,8,20v6.42l8,4.041l4.938-2.648
		C20.938,19.195,18.244,17.179,16.19,14.988z"/>
	<g>
		<g>
			<polygon fill="#E6CAA0" points="13.54,15.711 13.941,12.5 18.059,12.5 18.46,15.711 16,16.441 			"/>
		</g>
	</g>
	<g>
		<path fill="#455A64" d="M25.5,25.993c-0.276,0-0.5-0.224-0.5-0.5V20c0-0.954-0.789-2.066-1.689-2.381l-5.055-1.756
			c-0.18-0.062-0.309-0.221-0.332-0.41l-0.361-2.891c-0.034-0.274,0.16-0.524,0.435-0.559c0.255-0.029,0.523,0.159,0.558,0.434
			l0.323,2.584l4.762,1.652C24.941,17.129,26,18.621,26,20v5.493C26,25.77,25.776,25.993,25.5,25.993z"/>
	</g>
	<g>
		<path fill="#455A64" d="M6.5,25.993c-0.276,0-0.5-0.224-0.5-0.5V20c0-1.379,1.059-2.871,2.359-3.326l4.762-1.641l0.063-0.512
			c0.034-0.274,0.289-0.465,0.559-0.434c0.273,0.034,0.468,0.284,0.434,0.559l-0.103,0.82c-0.023,0.189-0.153,0.348-0.333,0.41
			l-5.054,1.742C7.789,17.934,7,19.047,7,20v5.493C7,25.77,6.776,25.993,6.5,25.993z"/>
	</g>
	<g>
		<path fill="#455A64" d="M16,30.961c-0.083,0-0.167-0.021-0.242-0.063l-6.5-3.591c-0.16-0.089-0.259-0.257-0.258-0.44V22.5
			c0.002-0.275,0.247-0.547,0.521-0.5c0.276,0.001,0.48,0.225,0.479,0.5v4l6.009,3.396L22,26.836v-4.313c0-0.276,0.224-0.5,0.5-0.5
			s0.5,0.224,0.5,0.5v4.619c0,0.188-0.105,0.36-0.272,0.445l-6.5,3.319C16.156,30.943,16.078,30.961,16,30.961z"/>
	</g>
	<g>
		<g>
			<path fill="#E6CAA0" d="M19.5,7v2.5c0,1.801-1.615,4-3.5,4s-3.5-2.199-3.5-4V7c0,0-0.438-4,3.5-4S19.5,7,19.5,7z"/>
		</g>
		<g>
			<path fill="#FFE0B2" d="M15.603,13.443c1.054-1.105,1.593-3.075,1.599-5.912c0.002-1.174-0.123-2.863-1.227-3.969
				c-0.202-0.203-0.436-0.368-0.686-0.513C12.119,3.504,12.5,7,12.5,7v2.5C12.5,11.172,13.896,13.163,15.603,13.443z"/>
		</g>
		<g>
			<path fill="#607D8B" d="M16,2.5c-5.646,0-3.5,7-3.5,7V6c0-0.553,0.447-1,1-1c0,0,0.938,0.5,2.5,0.5S18.5,5,18.5,5
				c0.553,0,1,0.447,1,1v3.5C19.5,9.5,21.646,2.5,16,2.5z"/>
		</g>
		<g>
			<path fill="#78909C" d="M16,5.5c0.361,0,0.686-0.028,0.976-0.07c-0.173-0.676-0.473-1.338-1.001-1.867
				c-0.393-0.393-0.886-0.666-1.458-0.842C10.79,3.877,12.5,9.5,12.5,9.5V6c0-0.553,0.447-1,1-1C13.5,5,14.438,5.5,16,5.5z"/>
		</g>
		<g>
			<path fill="#455A64" d="M16,6c-0.943,0-1.68-0.172-2.131-0.317c-0.264-0.085-0.408-0.366-0.324-0.629
				c0.085-0.263,0.365-0.406,0.629-0.323C14.558,4.854,15.186,5,16,5c1.808,0,2.774-0.446,2.784-0.451
				c0.248-0.115,0.547-0.014,0.666,0.236c0.118,0.248,0.016,0.545-0.232,0.664C19.172,5.473,18.06,6,16,6z"/>
		</g>
		<g>
			<path fill="#455A64" d="M16,14c-2.779,0-4.192-2.344-4.201-6.969c-0.002-1.174,0.123-2.863,1.227-3.969
				C13.729,2.357,14.729,2,16,2s2.271,0.357,2.975,1.063c1.104,1.105,1.229,2.795,1.227,3.969C20.192,11.656,18.779,14,16,14z M16,3
				c-1.009,0-1.75,0.252-2.267,0.769c-0.632,0.633-0.938,1.7-0.935,3.261C12.807,11.047,13.854,13,16,13s3.193-1.953,3.201-5.971
				c0.003-1.561-0.303-2.628-0.935-3.261C17.75,3.252,17.009,3,16,3z"/>
		</g>
	</g>
</g>
</svg>
