<?xml version="1.0" encoding="utf-8"?>
<!-- Generator: Adobe Illustrator 16.0.0, SVG Export Plug-In . SVG Version: 6.00 Build 0)  -->
<!DOCTYPE svg PUBLIC "-//W3C//DTD SVG 1.1//EN" "http://www.w3.org/Graphics/SVG/1.1/DTD/svg11.dtd">
<svg version="1.1" id="Layer_1" xmlns="http://www.w3.org/2000/svg" xmlns:xlink="http://www.w3.org/1999/xlink" x="0px" y="0px"
	 width="32px" height="32px" viewBox="0 0 32 32" enable-background="new 0 0 32 32" xml:space="preserve">
<g id="blog_x2C__blogging_x2C__site_x2C__pencil">
	<g>
		<g>
			<g>
				<path fill="#F2F4F5" d="M29.5,2.5c0-0.55-0.45-1-1-1h-25c-0.55,0-1,0.45-1,1v27c0,0.55,0.45,1,1,1h25c0.55,0,1-0.45,1-1V2.5z"/>
				<path fill="#A9E4FF" d="M3,5V2.5C3,1.947,2.947,2,3.5,2h25C29.053,2,29,1.947,29,2.5V5H3z"/>
				<rect x="3" y="2" fill="#FFFFFF" width="26" height="1"/>
				<circle fill="#455A64" cx="8.5" cy="3.5" r="0.5"/>
				<circle fill="#455A64" cx="6.5" cy="3.5" r="0.5"/>
				<circle fill="#455A64" cx="4.5" cy="3.5" r="0.5"/>
				<rect x="3" y="6" fill="#FFFFFF" width="26" height="1"/>
				<path fill="#455A64" d="M29.5,6h-27C2.224,6,2,5.776,2,5.5S2.224,5,2.5,5h27C29.776,5,30,5.224,30,5.5S29.776,6,29.5,6z"/>
				<path fill="#455A64" d="M11.5,31h-5C6.224,31,6,30.776,6,30.5S6.224,30,6.5,30h5c0.276,0,0.5,0.224,0.5,0.5S11.776,31,11.5,31z"
					/>
				<path fill="#455A64" d="M28.5,31h-13c-0.276,0-0.5-0.224-0.5-0.5s0.224-0.5,0.5-0.5h13c0.276,0,0.5-0.224,0.5-0.5v-27
					C29,2.224,28.776,2,28.5,2h-25C3.224,2,3,2.224,3,2.5v3C3,5.776,2.776,6,2.5,6S2,5.776,2,5.5v-3C2,1.673,2.673,1,3.5,1h25
					C29.327,1,30,1.673,30,2.5v27C30,30.327,29.327,31,28.5,31z"/>
			</g>
		</g>
	</g>
	<g>
		<g id="pencil_pen">
			<g>
				<g>
					<path fill="#FF8A80" d="M10.5,13.5c0,1.65-1.35,3-3,3h-2c-1.65,0-3-1.35-3-3v-3c0-1.65,1.35-3,3-3h2c1.65,0,3,1.35,3,3V13.5z"
						/>
					<path fill="#E67C73" d="M8.5,11.625V10.5c0-1.65-1.35-3-3-3h2c1.65,0,3,1.35,3,3v1.125H8.5z"/>
					<path fill="#FFFFFF" d="M4.5,11.625V10.5c0-1.65,1.35-3,3-3h-2c-1.65,0-3,1.35-3,3v1.125H4.5z"/>
					<path fill="#455A64" d="M10.5,14c-0.276,0-0.5-0.224-0.5-0.5v-3C10,9.122,8.878,8,7.5,8h-2C4.122,8,3,9.122,3,10.5v1
						C3,11.776,2.776,12,2.5,12S2,11.776,2,11.5v-1C2,8.57,3.57,7,5.5,7h2C9.43,7,11,8.57,11,10.5v3C11,13.776,10.776,14,10.5,14z"
						/>
				</g>
				<rect x="2.5" y="11.5" fill="#80D8FF" width="8" height="12"/>
				<rect x="8.5" y="11.5" fill="#73C2E6" width="2" height="12"/>
				<rect x="2.5" y="11.5" fill="#FFFFFF" width="2" height="12"/>
				<path fill="#FFE0B2" d="M7.313,29.672c-0.449,1.01-1.176,1.01-1.625,0L2.5,23.5l2-1.5l2,1.5l2-1.5l2,1.5L7.313,29.672z"/>
				<path fill="#80D8FF" d="M4.223,26.375l1.465,3.297c0.449,1.01,1.176,1.01,1.625,0l1.465-3.297H4.223z"/>
				<path fill="#455A64" d="M6.5,31c-0.179,0-0.345-0.096-0.434-0.252l-4-7c-0.137-0.24-0.054-0.545,0.186-0.682
					c0.239-0.139,0.545-0.054,0.682,0.186l3.566,6.24l3.347-5.857L8.5,22.625L6.8,23.9c-0.178,0.134-0.422,0.134-0.6,0l-2-1.5
					c-0.221-0.166-0.266-0.479-0.1-0.7c0.166-0.221,0.479-0.265,0.7-0.1l1.7,1.275L8.2,21.6c0.178-0.134,0.422-0.134,0.6,0l2,1.5
					c0.202,0.151,0.259,0.429,0.134,0.648l-4,7C6.845,30.904,6.679,31,6.5,31z"/>
				<g>
					<path fill="#A9E4FF" d="M8.5,13.5V22V13.5z"/>
					<path fill="#455A64" d="M8.5,22.5C8.224,22.5,8,22.276,8,22v-8.5C8,13.224,8.224,13,8.5,13S9,13.224,9,13.5V22
						C9,22.276,8.776,22.5,8.5,22.5z"/>
				</g>
				<g>
					<path fill="#A9E4FF" d="M4.5,15.5V22V15.5z"/>
					<path fill="#455A64" d="M4.5,22.5C4.224,22.5,4,22.276,4,22v-6.5C4,15.224,4.224,15,4.5,15S5,15.224,5,15.5V22
						C5,22.276,4.776,22.5,4.5,22.5z"/>
				</g>
				<circle fill="#455A64" cx="13.5" cy="30.5" r="0.5"/>
				<circle fill="#455A64" cx="4.5" cy="13.5" r="0.5"/>
				<g>
					<path fill="#A9E4FF" d="M6.5,26.5h2H6.5z"/>
					<path fill="#455A64" d="M8.5,27h-2C6.224,27,6,26.776,6,26.5S6.224,26,6.5,26h2C8.776,26,9,26.224,9,26.5S8.776,27,8.5,27z"/>
				</g>
				<g>
					<path fill="#455A64" d="M2.5,24C2.224,24,2,23.776,2,23.5v-10C2,13.224,2.224,13,2.5,13S3,13.224,3,13.5v10
						C3,23.776,2.776,24,2.5,24z"/>
					<path fill="#455A64" d="M10.5,24c-0.276,0-0.5-0.224-0.5-0.5V12H2.5C2.224,12,2,11.776,2,11.5S2.224,11,2.5,11h8
						c0.276,0,0.5,0.224,0.5,0.5v12C11,23.776,10.776,24,10.5,24z"/>
				</g>
			</g>
		</g>
		<rect x="13" y="8" fill="#FF8A80" width="14" height="8"/>
		<g>
			<path fill="#455A64" d="M13.5,26.5h3H13.5z"/>
			<path fill="#455A64" d="M16.5,27h-3c-0.276,0-0.5-0.224-0.5-0.5s0.224-0.5,0.5-0.5h3c0.276,0,0.5,0.224,0.5,0.5
				S16.776,27,16.5,27z"/>
		</g>
		<g>
			<path fill="#455A64" d="M21.5,24.5h5H21.5z"/>
			<path fill="#455A64" d="M26.5,25h-5c-0.276,0-0.5-0.224-0.5-0.5s0.224-0.5,0.5-0.5h5c0.276,0,0.5,0.224,0.5,0.5
				S26.776,25,26.5,25z"/>
		</g>
		<g>
			<path fill="#455A64" d="M13.5,24.5h6H13.5z"/>
			<path fill="#455A64" d="M19.5,25h-6c-0.276,0-0.5-0.224-0.5-0.5s0.224-0.5,0.5-0.5h6c0.276,0,0.5,0.224,0.5,0.5
				S19.776,25,19.5,25z"/>
		</g>
		<g>
			<path fill="#455A64" d="M18.5,26.5h1H18.5z"/>
			<path fill="#455A64" d="M19.5,27h-1c-0.276,0-0.5-0.224-0.5-0.5s0.224-0.5,0.5-0.5h1c0.276,0,0.5,0.224,0.5,0.5
				S19.776,27,19.5,27z"/>
		</g>
		<g>
			<path fill="#455A64" d="M13.5,22.5h9H13.5z"/>
			<path fill="#455A64" d="M22.5,23h-9c-0.276,0-0.5-0.224-0.5-0.5s0.224-0.5,0.5-0.5h9c0.276,0,0.5,0.224,0.5,0.5
				S22.776,23,22.5,23z"/>
		</g>
		<g>
			<path fill="#455A64" d="M13.5,20.5h3H13.5z"/>
			<path fill="#455A64" d="M16.5,21h-3c-0.276,0-0.5-0.224-0.5-0.5s0.224-0.5,0.5-0.5h3c0.276,0,0.5,0.224,0.5,0.5
				S16.776,21,16.5,21z"/>
		</g>
		<g>
			<path fill="#455A64" d="M24.5,18.5h2H24.5z"/>
			<path fill="#455A64" d="M26.5,19h-2c-0.276,0-0.5-0.224-0.5-0.5s0.224-0.5,0.5-0.5h2c0.276,0,0.5,0.224,0.5,0.5
				S26.776,19,26.5,19z"/>
		</g>
		<g>
			<path fill="#455A64" d="M13.5,18.5h9H13.5z"/>
			<path fill="#455A64" d="M22.5,19h-9c-0.276,0-0.5-0.224-0.5-0.5s0.224-0.5,0.5-0.5h9c0.276,0,0.5,0.224,0.5,0.5
				S22.776,19,22.5,19z"/>
		</g>
		<g>
			<path fill="#455A64" d="M18.5,20.5h8H18.5z"/>
			<path fill="#455A64" d="M26.5,21h-8c-0.276,0-0.5-0.224-0.5-0.5s0.224-0.5,0.5-0.5h8c0.276,0,0.5,0.224,0.5,0.5
				S26.776,21,26.5,21z"/>
		</g>
	</g>
</g>
</svg>
