<?xml version="1.0" encoding="UTF-8" standalone="no"?>
<!-- Created with Inkscape (http://www.inkscape.org/) -->

<svg
   xmlns:dc="http://purl.org/dc/elements/1.1/"
   xmlns:cc="http://creativecommons.org/ns#"
   xmlns:rdf="http://www.w3.org/1999/02/22-rdf-syntax-ns#"
   xmlns:svg="http://www.w3.org/2000/svg"
   xmlns="http://www.w3.org/2000/svg"
   xmlns:sodipodi="http://sodipodi.sourceforge.net/DTD/sodipodi-0.dtd"
   xmlns:inkscape="http://www.inkscape.org/namespaces/inkscape"
   width="16px"
   height="16px"
   viewBox="0 0 16 16"
   version="1.1"
   id="SVGRoot"
   inkscape:version="0.92.4 (5da689c313, 2019-01-14)"
   sodipodi:docname="twitter.svg">
  <defs
     id="defs10">
    <style
       id="style1589">.cls-1{fill:none;}.cls-2{fill:#1da1f2;}</style>
  </defs>
  <sodipodi:namedview
     id="base"
     pagecolor="#00002b"
     bordercolor="#666666"
     borderopacity="1.0"
     inkscape:pageopacity="0"
     inkscape:pageshadow="2"
     inkscape:zoom="32"
     inkscape:cx="12.426531"
     inkscape:cy="10.572196"
     inkscape:document-units="px"
     inkscape:current-layer="g1607"
     showgrid="true"
     inkscape:window-width="1920"
     inkscape:window-height="1016"
     inkscape:window-x="0"
     inkscape:window-y="27"
     inkscape:window-maximized="1"
     inkscape:grid-bbox="true"
     inkscape:snap-page="false"
     inkscape:snap-grids="false"
     inkscape:snap-to-guides="true">
    <inkscape:grid
       type="xygrid"
       id="grid25" />
  </sodipodi:namedview>
  <metadata
     id="metadata13">
    <rdf:RDF>
      <cc:Work
         rdf:about="">
        <dc:format>image/svg+xml</dc:format>
        <dc:type
           rdf:resource="http://purl.org/dc/dcmitype/StillImage" />
        <dc:title></dc:title>
      </cc:Work>
    </rdf:RDF>
  </metadata>
  <g
     inkscape:label="Layer 1"
     inkscape:groupmode="layer"
     id="layer1">
    <g
       transform="matrix(1.3333333,0,0,-1.3333333,-664.97498,179.34375)"
       inkscape:label="ink_ext_XXXXXX"
       id="g1379">
      <g
         transform="scale(0.1)"
         id="g1381">
        <g
           id="g1607"
           transform="matrix(7.5000002,0,0,-7.5000002,5204.8125,4637.5782)">
          <rect
             id="rect1595"
             height="400"
             width="400"
             class="cls-1"
             x="0"
             y="0"
             style="fill:none" />
          <path
             id="path1597"
             d="m -23.845299,453.24625 c 5.6604,0 8.7564,-4.6896 8.7564,-8.7564 0,-0.1332 0,-0.2658 -0.009,-0.3978 a 6.2616002,6.2616002 0 0 0 1.5354,-1.593 6.1427997,6.1427997 0 0 1 -1.7676,0.4842 3.0882,3.0882 0 0 0 1.353,-1.7022 6.1674002,6.1674002 0 0 1 -1.9542,0.747 3.0804,3.0804 0 0 0 -5.2446,2.8068 8.7371998,8.7371998 0 0 1 -6.3426,-3.2154 3.0798,3.0798 0 0 0 0.9528,4.1082 3.0546,3.0546 0 0 1 -1.3968,-0.3852 c 0,0.0126 0,0.0258 0,0.039 a 3.0786,3.0786 0 0 0 2.469,3.0168 3.0726,3.0726 0 0 1 -1.3896,0.0528 3.081,3.081 0 0 0 2.8752,2.1372 6.1752001,6.1752001 0 0 1 -3.822,1.32 6.2646002,6.2646002 0 0 1 -0.7326,-0.0444 8.7125999,8.7125999 0 0 0 4.7172,1.38"
             class="cls-2"
             inkscape:connector-curvature="0"
             style="fill:#ffffff;stroke-width:0.06" />
        </g>
      </g>
    </g>
  </g>
  <style
     id="style988"
     type="text/css">
	.st0{fill:#FFFFFF;}
</style>
  <style
     id="style1494"
     type="text/css">
	.st0{fill:#1DA1F2;}
	.st1{fill:#FFFFFF;}
</style>
</svg>
