<?xml version="1.0" encoding="utf-8"?>
<!-- Generator: Adobe Illustrator 16.0.0, SVG Export Plug-In . SVG Version: 6.00 Build 0)  -->
<!DOCTYPE svg PUBLIC "-//W3C//DTD SVG 1.1//EN" "http://www.w3.org/Graphics/SVG/1.1/DTD/svg11.dtd">
<svg version="1.1" id="Layer_1" xmlns="http://www.w3.org/2000/svg" xmlns:xlink="http://www.w3.org/1999/xlink" x="0px" y="0px"
	 width="32px" height="32px" viewBox="0 0 32 32" enable-background="new 0 0 32 32" xml:space="preserve">
<g id="Cloud_x2C__options_x2C__preferences_x2C__setting_x2C__settings">
	<g>
		<g>
			<path fill="#FFFFFF" d="M26.943,20.651c-0.676,0-1.334-0.193-1.906-0.559l-0.119-0.076l-0.13,0.053
				c-0.936,0.376-2.113,0.582-3.317,0.582c-1.309,0-2.566-0.241-3.541-0.681l-0.097-0.043l-0.102,0.033
				c-1.361,0.451-2.906,0.69-4.467,0.69c-1.567,0-3.118-0.241-4.487-0.697l-0.12-0.04L8.55,19.98
				c-0.729,0.438-1.559,0.671-2.398,0.671C3.586,20.651,1.5,18.564,1.5,16c0-2.379,1.781-4.365,4.145-4.622l0.364-0.04L5.866,11
				C5.51,10.156,5.33,9.262,5.33,8.34c0-3.771,3.068-6.84,6.84-6.84c2.811,0,5.303,1.689,6.348,4.303l0.111,0.277l0.265-0.135
				c0.813-0.408,1.68-0.615,2.577-0.615c3.169,0,5.746,2.577,5.746,5.746c0,0.713-0.135,1.418-0.399,2.094l-0.142,0.361l0.387,0.013
				c1.927,0.064,3.438,1.624,3.438,3.55C30.5,19.056,28.904,20.651,26.943,20.651z"/>
			<path fill="#ECEFF1" d="M27.054,13.817l-0.775-0.026l0.284-0.721c0.253-0.645,0.381-1.314,0.381-1.994
				c0-1.688-0.771-3.199-1.976-4.205c0.001,0.004,0.003,0.007,0.005,0.01c-0.186-0.154-0.382-0.297-0.586-0.428
				c-0.01-0.007-0.023-0.014-0.034-0.021c-0.192-0.121-0.396-0.229-0.604-0.325c-0.01-0.005-0.019-0.01-0.028-0.014
				c0.31,0.686,0.487,1.443,0.487,2.246c0,3.021-2.45,5.471-5.473,5.471c-0.778,0-1.515-0.169-2.187-0.461
				c-0.02-0.026-0.036-0.053-0.053-0.078c1.37-1.203,2.239-2.965,2.239-4.932c0-0.799-0.153-1.557-0.414-2.263
				c0.002-0.005,0.004-0.01,0.005-0.015l-0.063-0.158c-0.46-1.15-1.216-2.111-2.154-2.818c0.008,0.014,0.018,0.025,0.025,0.039
				c-0.178-0.137-0.359-0.27-0.551-0.387c0.606,0.996,0.963,2.16,0.963,3.413c0,3.626-2.938,6.565-6.566,6.565
				c-1.253,0-2.417-0.355-3.412-0.965c0.565,0.928,1.357,1.701,2.293,2.252c0.01,0.117,0.026,0.234,0.026,0.354
				c0,2.417-1.961,4.378-4.378,4.378c-0.787,0-1.522-0.211-2.16-0.574c0.003,0.006,0.008,0.011,0.01,0.016
				c0.225,0.389,0.51,1.008,0.838,1.311c-0.003-0.001-0.007-0.002-0.01-0.002c0.781,0.72,1.82,1.165,2.964,1.165
				c0.79,0,1.57-0.22,2.257-0.633l0.215-0.13l0.24,0.08c1.341,0.446,2.863,0.683,4.401,0.683c1.531,0,3.047-0.233,4.381-0.676
				l0.202-0.067l0.194,0.087c0.94,0.423,2.158,0.656,3.429,0.656c1.171,0,2.313-0.2,3.215-0.563l0.262-0.104l0.237,0.151
				c0.527,0.337,1.136,0.241,1.759,0.241c1.811,0,3.283-1.473,3.283-3.283C30.227,15.315,28.833,13.877,27.054,13.817z"/>
			<path fill="#455A64" d="M4.474,20.838c-0.06,0-0.122-0.011-0.181-0.034C2.323,20.041,1,18.11,1,16
				c0-2.535,1.827-4.668,4.296-5.079C4.987,10.098,4.83,9.231,4.83,8.34c0-1.525,0.465-2.988,1.345-4.23
				c0.16-0.226,0.471-0.278,0.697-0.119c0.225,0.16,0.279,0.472,0.119,0.697C6.231,5.76,5.83,7.023,5.83,8.34
				c0,0.856,0.167,1.686,0.497,2.466l0.143,0.338c0.062,0.146,0.051,0.312-0.029,0.448c-0.08,0.136-0.22,0.227-0.376,0.244
				l-0.364,0.04C3.59,12.104,2,13.877,2,16c0,1.7,1.067,3.256,2.654,3.872c0.258,0.1,0.385,0.39,0.286,0.647
				C4.863,20.717,4.674,20.838,4.474,20.838z"/>
			<path fill="#455A64" d="M27.685,21.073c-0.231,0-0.438-0.161-0.489-0.396c-0.057-0.27,0.115-0.536,0.385-0.593
				C28.983,19.786,30,18.528,30,17.094c0-1.655-1.298-2.995-2.954-3.05l-0.387-0.013c-0.162-0.005-0.312-0.089-0.401-0.225
				s-0.107-0.306-0.048-0.458l0.142-0.361c0.242-0.618,0.365-1.261,0.365-1.911c0-2.893-2.354-5.246-5.246-5.246
				c-0.818,0-1.609,0.189-2.353,0.562l-0.262,0.133c-0.126,0.064-0.272,0.071-0.403,0.023c-0.131-0.049-0.236-0.152-0.288-0.282
				l-0.111-0.277C17.084,3.565,14.775,2,12.17,2c-0.51,0-1.015,0.061-1.502,0.18c-0.126,0.03-0.249,0.065-0.371,0.102
				c-0.266,0.084-0.544-0.066-0.625-0.33c-0.082-0.264,0.066-0.544,0.33-0.625c0.141-0.044,0.284-0.083,0.428-0.119
				C10.995,1.07,11.58,1,12.17,1c2.936,0,5.547,1.716,6.718,4.394c0.821-0.375,1.688-0.563,2.583-0.563
				c3.444,0,6.246,2.802,6.246,6.246c0,0.675-0.111,1.343-0.33,1.99C29.437,13.287,31,15,31,17.094c0,1.903-1.35,3.572-3.21,3.969
				C27.755,21.07,27.72,21.073,27.685,21.073z"/>
			<circle fill="#455A64" cx="8.5" cy="2.5" r="0.5"/>
		</g>
		<g>
			<path fill="#80D8FF" d="M25.5,21.156v-2l-2.14-0.428c-0.118-0.611-0.313-1.192-0.569-1.74l1.482-1.607l-1.176-1.618l-1.987,0.914
				c-0.446-0.417-0.94-0.782-1.478-1.081l0.254-2.167l-1.902-0.618l-1.069,1.905c-0.301-0.037-0.604-0.062-0.915-0.062
				s-0.614,0.024-0.915,0.062l-1.069-1.906l-1.902,0.619l0.254,2.166c-0.537,0.298-1.031,0.664-1.478,1.081l-1.987-0.914
				l-1.176,1.619l1.482,1.607c-0.256,0.548-0.451,1.129-0.569,1.74L6.5,19.156v2l2.14,0.428c0.118,0.611,0.313,1.192,0.569,1.74
				l-1.482,1.607l1.176,1.618l1.987-0.914c0.446,0.417,0.94,0.782,1.478,1.081l-0.254,2.167l1.902,0.618l1.069-1.905
				c0.301,0.037,0.604,0.062,0.915,0.062s0.614-0.024,0.915-0.062l1.069,1.906l1.902-0.619l-0.254-2.166
				c0.537-0.298,1.031-0.664,1.478-1.081l1.987,0.914l1.176-1.619l-1.482-1.607c0.256-0.548,0.451-1.129,0.569-1.74L25.5,21.156z
				 M16,24.656c-2.485,0-4.5-2.015-4.5-4.5s2.015-4.5,4.5-4.5s4.5,2.015,4.5,4.5S18.485,24.656,16,24.656z"/>
			<g>
				<path fill="#FFFFFF" d="M20.553,14.867l0.673,0.49c0.211,0.176,0.589,0.226,0.838,0.111l1.079-0.496
					c0.094-0.043,0.2-0.049,0.304-0.039l-0.85-1.17l-1.987,0.914c-0.126-0.118-0.264-0.221-0.397-0.33
					C20.262,14.555,20.389,14.761,20.553,14.867z"/>
				<path fill="#FFFFFF" d="M15.84,13.281c0.135,0.24,0.468,0.413,0.742,0.385c0,0,0.107-0.011,0.417-0.011s0.417,0.011,0.417,0.011
					c0.274,0.028,0.608-0.146,0.742-0.385l0.58-1.033c0.134-0.24,0.458-0.367,0.72-0.282l0.351,0.114l0.076-0.65l-1.902-0.618
					l-1.069,1.905c-0.301-0.037-0.604-0.062-0.915-0.062c-0.167,0-0.329,0.021-0.492,0.033L15.84,13.281z"/>
				<path fill="#FFFFFF" d="M7.5,20.656c0-0.275,0.221-0.544,0.49-0.598l1.159-0.231c0.27-0.054,0.547-0.316,0.617-0.582
					l0.257-0.792c0.102-0.255,0.033-0.63-0.153-0.832l-0.805-0.872c-0.187-0.202-0.207-0.55-0.045-0.772l0.588-0.81
					c0.162-0.222,0.499-0.31,0.748-0.195l1.079,0.496c0.25,0.115,0.627,0.065,0.838-0.111l0.673-0.49
					c0.231-0.149,0.394-0.494,0.362-0.767l-0.138-1.173c-0.032-0.273,0.156-0.566,0.417-0.651l0.951-0.309
					c0.037-0.012,0.077-0.011,0.115-0.015l-0.64-1.14l-1.902,0.619l0.254,2.166c-0.537,0.298-1.031,0.664-1.478,1.081l-1.987-0.914
					l-1.176,1.619l1.482,1.607c-0.256,0.548-0.451,1.129-0.569,1.74L6.5,19.156v2l1,0.2V20.656z"/>
				<path fill="#FFFFFF" d="M9.021,25.835c-0.162-0.222-0.142-0.57,0.045-0.772l0.805-0.872c0.187-0.202,0.255-0.577,0.153-0.832
					l-0.257-0.792c-0.07-0.266-0.348-0.527-0.617-0.582l-0.29-0.058c0.099,0.307,0.214,0.606,0.349,0.896l-1.482,1.607l1.176,1.618
					l0.205-0.094L9.021,25.835z"/>
			</g>
			<path fill="#455A64" d="M17.984,30c-0.177,0-0.346-0.094-0.436-0.255l-0.908-1.618c-0.422,0.037-0.858,0.037-1.28,0l-0.908,1.618
				c-0.116,0.208-0.366,0.305-0.59,0.231l-1.902-0.618c-0.227-0.074-0.37-0.297-0.342-0.534l0.216-1.842
				c-0.359-0.221-0.705-0.474-1.032-0.756l-1.689,0.777c-0.216,0.101-0.474,0.033-0.613-0.16l-1.176-1.618
				c-0.14-0.193-0.125-0.458,0.037-0.633l1.26-1.366c-0.167-0.398-0.3-0.806-0.398-1.216l-1.819-0.364
				C6.168,21.599,6,21.394,6,21.156v-2c0-0.238,0.168-0.443,0.402-0.49l1.819-0.364c0.098-0.41,0.232-0.817,0.398-1.216l-1.26-1.366
				c-0.162-0.175-0.177-0.44-0.037-0.633l1.176-1.619c0.14-0.193,0.397-0.261,0.613-0.16l1.689,0.777
				c0.328-0.282,0.673-0.535,1.032-0.756l-0.216-1.841c-0.028-0.236,0.115-0.46,0.342-0.534l1.902-0.619
				c0.227-0.075,0.475,0.023,0.591,0.231l0.908,1.618c0.422-0.037,0.858-0.037,1.28,0l0.908-1.618
				c0.117-0.208,0.364-0.305,0.59-0.231l1.902,0.618c0.227,0.074,0.37,0.297,0.342,0.534l-0.216,1.842
				c0.359,0.221,0.705,0.474,1.032,0.756l1.689-0.777c0.216-0.101,0.474-0.033,0.613,0.16l1.176,1.618
				c0.14,0.193,0.125,0.458-0.037,0.633l-1.26,1.366c0.167,0.398,0.3,0.806,0.398,1.216l1.819,0.364
				C25.832,18.712,26,18.917,26,19.156v2c0,0.238-0.168,0.443-0.402,0.49l-1.819,0.364c-0.098,0.41-0.232,0.817-0.398,1.216
				l1.26,1.366c0.162,0.175,0.177,0.44,0.037,0.633l-1.176,1.619c-0.14,0.193-0.397,0.261-0.613,0.16L21.2,26.226
				c-0.328,0.282-0.673,0.535-1.032,0.756l0.216,1.841c0.028,0.236-0.115,0.46-0.342,0.534l-1.902,0.619
				C18.088,29.992,18.036,30,17.984,30z M16.915,27.094c0.179,0,0.347,0.096,0.436,0.255l0.869,1.548l1.123-0.365l-0.206-1.759
				c-0.023-0.201,0.077-0.397,0.254-0.495c0.488-0.271,0.953-0.611,1.379-1.009c0.148-0.138,0.366-0.174,0.55-0.088l1.615,0.743
				l0.694-0.956l-1.205-1.306c-0.137-0.149-0.171-0.367-0.085-0.55c0.247-0.528,0.425-1.074,0.532-1.623
				c0.039-0.2,0.194-0.356,0.393-0.396L25,20.746v-1.18l-1.738-0.348c-0.199-0.04-0.354-0.196-0.393-0.396
				c-0.106-0.549-0.285-1.095-0.532-1.624c-0.086-0.184-0.052-0.401,0.085-0.55l1.205-1.306l-0.694-0.955l-1.615,0.743
				c-0.185,0.084-0.402,0.049-0.55-0.088c-0.426-0.398-0.891-0.738-1.379-1.009c-0.177-0.098-0.277-0.294-0.254-0.495l0.206-1.759
				l-1.123-0.365l-0.869,1.548c-0.1,0.177-0.297,0.276-0.497,0.251c-0.562-0.069-1.146-0.069-1.708,0
				c-0.203,0.023-0.397-0.075-0.497-0.251l-0.869-1.548l-1.123,0.365l0.206,1.759c0.023,0.201-0.077,0.397-0.254,0.495
				c-0.488,0.271-0.953,0.611-1.379,1.009c-0.149,0.137-0.367,0.173-0.55,0.088l-1.615-0.743l-0.694,0.956l1.205,1.306
				c0.137,0.149,0.171,0.367,0.085,0.55c-0.247,0.528-0.425,1.074-0.532,1.623c-0.039,0.2-0.194,0.356-0.393,0.396L7,19.566v1.18
				l1.738,0.348c0.199,0.04,0.354,0.196,0.393,0.396c0.106,0.549,0.285,1.095,0.532,1.624c0.086,0.184,0.052,0.401-0.085,0.55
				l-1.205,1.306l0.694,0.955l1.615-0.743c0.184-0.086,0.401-0.05,0.55,0.088c0.426,0.398,0.891,0.738,1.379,1.009
				c0.177,0.098,0.277,0.294,0.254,0.495l-0.206,1.759l1.123,0.365l0.869-1.548c0.099-0.177,0.291-0.278,0.497-0.251
				c0.562,0.069,1.146,0.069,1.708,0C16.875,27.096,16.895,27.094,16.915,27.094z M16,25.156c-2.757,0-5-2.243-5-5s2.243-5,5-5
				s5,2.243,5,5c0,0.357-0.038,0.714-0.113,1.061c-0.058,0.27-0.32,0.442-0.594,0.383c-0.27-0.058-0.441-0.324-0.383-0.594
				c0.06-0.278,0.09-0.564,0.09-0.85c0-2.206-1.794-4-4-4s-4,1.794-4,4s1.794,4,4,4c0.547,0,1.077-0.108,1.575-0.322
				c0.253-0.111,0.547,0.008,0.657,0.262c0.109,0.254-0.009,0.548-0.262,0.657C17.346,25.02,16.684,25.156,16,25.156z"/>
			<circle fill="#455A64" cx="19.5" cy="23" r="0.5"/>
		</g>
	</g>
	<path fill="#455A64" d="M22.055,30.863c-0.172,0-0.339-0.088-0.432-0.248c-0.139-0.238-0.059-0.544,0.179-0.684
		c2.187-1.28,3.914-3.276,4.862-5.618c0.104-0.256,0.395-0.38,0.651-0.276c0.256,0.104,0.379,0.395,0.276,0.651
		c-1.031,2.546-2.907,4.715-5.284,6.106C22.228,30.841,22.141,30.863,22.055,30.863z"/>
	<path fill="#455A64" d="M8.5,29.868c-0.109,0-0.22-0.036-0.313-0.11c-2.251-1.805-3.82-4.346-4.416-7.154
		c-0.057-0.27,0.115-0.535,0.386-0.593c0.269-0.056,0.536,0.115,0.593,0.386c0.548,2.583,1.991,4.92,4.063,6.581
		c0.215,0.173,0.25,0.487,0.077,0.703C8.792,29.804,8.646,29.868,8.5,29.868z"/>
	<circle fill="#455A64" cx="10.5" cy="30.5" r="0.5"/>
	<circle fill="#455A64" cx="27.5" cy="22.5" r="0.5"/>
</g>
</svg>
