<?xml version="1.0" encoding="utf-8"?>
<!-- Generator: Adobe Illustrator 16.0.0, SVG Export Plug-In . SVG Version: 6.00 Build 0)  -->
<!DOCTYPE svg PUBLIC "-//W3C//DTD SVG 1.1//EN" "http://www.w3.org/Graphics/SVG/1.1/DTD/svg11.dtd">
<svg version="1.1" id="Layer_1" xmlns="http://www.w3.org/2000/svg" xmlns:xlink="http://www.w3.org/1999/xlink" x="0px" y="0px"
	 width="32px" height="32px" viewBox="0 0 32 32" enable-background="new 0 0 32 32" xml:space="preserve">
<g id="cloud_computing_network_x2C__cloud_network_x2C__cloud_server_x2C__cloud_web_hosting">
	<g id="cloud_storage_1_">
		<g>
			<circle fill="#FFFFFF" cx="27" cy="16" r="3.5"/>
			<circle fill="#FFFFFF" cx="6" cy="15" r="4.5"/>
			<circle fill="#FFFFFF" cx="21.5" cy="11" r="5.5"/>
			<circle fill="#FFFFFF" cx="12.5" cy="8.5" r="7"/>
			<path fill="#ECEFF1" d="M27,12.5c-0.074,0-0.145,0.017-0.218,0.022C26.921,12.038,27,11.529,27,11
				c0-2.452-1.605-4.528-3.822-5.237C23.694,6.55,24,7.488,24,8.5c0,2.761-2.238,5-5,5c-0.49,0-0.961-0.075-1.408-0.207
				C18.772,12.04,19.5,10.357,19.5,8.5c0-2.745-1.584-5.114-3.884-6.261C16.175,3.198,16.5,4.31,16.5,5.5c0,3.59-2.91,6.5-6.5,6.5
				c-1.613,0-3.087-0.591-4.223-1.564c0.445,1.55,1.42,2.867,2.704,3.774C8.489,14.306,8.5,14.401,8.5,14.5c0,2.209-1.791,4-4,4
				c-0.643,0-1.24-0.166-1.778-0.434C3.543,18.943,4.703,19.5,6,19.5c2.422,0,19.106,0,21,0c1.933,0,3.5-1.567,3.5-3.5
				S28.933,12.5,27,12.5z"/>
			<path fill="#455A64" d="M27,20h-4.5c-0.276,0-0.5-0.224-0.5-0.5s0.224-0.5,0.5-0.5H27c1.654,0,3-1.346,3-3s-1.346-3-3-3
				c-0.012,0.001-0.173,0.02-0.185,0.021c-0.165,0.008-0.32-0.059-0.422-0.185c-0.103-0.126-0.137-0.295-0.092-0.452
				C26.434,11.925,26.5,11.459,26.5,11c0-2.757-2.243-5-5-5c-0.771,0-1.517,0.176-2.217,0.524c-0.129,0.063-0.275,0.068-0.407,0.017
				c-0.132-0.052-0.235-0.158-0.284-0.292C17.651,3.708,15.203,2,12.5,2c-0.76,0-1.504,0.13-2.211,0.386
				c-0.257,0.093-0.546-0.04-0.64-0.3c-0.095-0.26,0.04-0.546,0.3-0.641C10.766,1.15,11.624,1,12.5,1
				c2.942,0,5.622,1.752,6.827,4.411C20.022,5.138,20.751,5,21.5,5c3.309,0,6,2.691,6,6c0,0.339-0.03,0.681-0.09,1.021
				C29.424,12.227,31,13.933,31,16C31,18.206,29.206,20,27,20z M8.5,20H6c-2.757,0-5-2.243-5-5c0-2.466,1.788-4.52,4.17-4.916
				C5.058,9.563,5,9.032,5,8.5c0-1.572,0.481-3.077,1.392-4.354C6.553,3.92,6.865,3.871,7.089,4.03
				C7.314,4.19,7.366,4.502,7.206,4.728C6.417,5.833,6,7.138,6,8.5c0,0.632,0.094,1.264,0.277,1.876
				c0.045,0.148,0.019,0.308-0.07,0.433c-0.09,0.126-0.231,0.204-0.386,0.21C3.679,11.116,2,12.865,2,15c0,2.206,1.794,4,4,4h2.5
				C8.776,19,9,19.224,9,19.5S8.776,20,8.5,20z"/>
			<g>
				<circle fill="#455A64" cx="8.5" cy="2.5" r="0.5"/>
			</g>
		</g>
	</g>
	<g id="hypervisor_3_">
		<g id="hypervisor_virtualizacion_Virtual_machine_1_">
			<path fill="#455A64" d="M25.5,26c-0.276,0-0.5-0.224-0.5-0.5v-3c0-0.276-0.225-0.5-0.5-0.5h-5c-0.827,0-1.5-0.673-1.5-1.5v-1
				c0-0.276,0.224-0.5,0.5-0.5s0.5,0.224,0.5,0.5v1c0,0.276,0.225,0.5,0.5,0.5h5c0.827,0,1.5,0.673,1.5,1.5v3
				C26,25.776,25.776,26,25.5,26z"/>
			<path fill="#455A64" d="M5.5,26C5.224,26,5,25.776,5,25.5v-3C5,21.673,5.673,21,6.5,21h5c0.275,0,0.5-0.224,0.5-0.5v-1
				c0-0.276,0.224-0.5,0.5-0.5s0.5,0.224,0.5,0.5v1c0,0.827-0.673,1.5-1.5,1.5h-5C6.225,22,6,22.224,6,22.5v3
				C6,25.776,5.776,26,5.5,26z"/>
			<path fill="#455A64" d="M15.5,27c-0.276,0-0.5-0.224-0.5-0.5v-7c0-0.276,0.224-0.5,0.5-0.5s0.5,0.224,0.5,0.5v7
				C16,26.776,15.776,27,15.5,27z"/>
			<g>
				<rect x="22.5" y="24.5" fill="#FFFFFF" width="6" height="6"/>
				<path fill="#80D8FF" d="M23,30.5V28c0-1.104,0.896-2,2-2h3.5v4.5H23z"/>
				<path fill="#455A64" d="M28.5,31h-6c-0.276,0-0.5-0.224-0.5-0.5v-6c0-0.276,0.224-0.5,0.5-0.5h6c0.276,0,0.5,0.224,0.5,0.5v6
					C29,30.776,28.776,31,28.5,31z M23,30h5v-5h-5V30z"/>
			</g>
			<g>
				<rect x="12.5" y="24.5" fill="#FFFFFF" width="6" height="6"/>
				<path fill="#FFF176" d="M13,30.5V28c0-1.104,0.896-2,2-2h3.5v4.5H13z"/>
				<path fill="#455A64" d="M18.5,31h-6c-0.276,0-0.5-0.224-0.5-0.5v-6c0-0.276,0.224-0.5,0.5-0.5h6c0.276,0,0.5,0.224,0.5,0.5v6
					C19,30.776,18.776,31,18.5,31z M13,30h5v-5h-5V30z"/>
			</g>
			<g>
				<rect x="2.5" y="24.5" fill="#FFFFFF" width="6" height="6"/>
				<path fill="#65F0CD" d="M3,30.5V28c0-1.104,0.896-2,2-2h3.5v4.5H3z"/>
				<path fill="#455A64" d="M8.5,31h-6C2.224,31,2,30.776,2,30.5v-6C2,24.224,2.224,24,2.5,24h6C8.776,24,9,24.224,9,24.5v6
					C9,30.776,8.776,31,8.5,31z M3,30h5v-5H3V30z"/>
			</g>
		</g>
	</g>
</g>
</svg>
